  0
SECTION
  2
HEADER
  9
$ANGBASE
  50
0.0
  9
$ANGDIR
  70
1
  9
$MEASUREMENT
  70
1
  0
ENDSEC
  0
SECTION
  2
TABLES
  0
TABLE
  2
LTYPE
  70
4
  0
LTYPE
  5
40F
  2
CONTINUOUS
  70
0
  3
Solid line
  72
65
  73
0
  40
0.0
  0
LTYPE
  5
410
  2
DASHDOT
 70
0
  3
Dash Dot ____ _ ____ _
 72
65
 73
4
 40
2.0
 49
1.25
 49
-0.25
 49
0.25
 49
-0.25
  0
LTYPE
  5
411
  2
DASHED
 70
0
  3
Dashed __ __ __ __ __
 72
65
 73
2
 40
0.75
 49
0.5
 49
-0.25
  0
LTYPE
  5
43B
  2
DOTTED
 70
0
  3
Dotted .  .  .  .
 72
65
 73
2
 40
0.2
 49
0.0
 49
-0.2
  0
ENDTAB
  0
TABLE
  2
STYLE
  70
4
  0
STYLE
  2
KICAD
  70
0
  40
0
  41
1
  42
1
  50
0
  71
0
  3
isocp.shx
  0
STYLE
  2
KICADB
  70
0
  40
0
  41
1
  42
1
  50
0
  71
0
  3
isocp.shx
  0
STYLE
  2
KICADI
  70
0
  40
0
  41
1
  42
1
  50
15
  71
0
  3
isocp.shx
  0
STYLE
  2
KICADBI
  70
0
  40
0
  41
1
  42
1
  50
15
  71
0
  3
isocp.shx
  0
ENDTAB
  0
TABLE
  2
LAYER
  70
1
  0
LAYER
  2
BLACK
  70
0
  62
7
  6
CONTINUOUS
  0
ENDTAB
  0
ENDSEC
  0
SECTION
  2
ENTITIES
0
LINE
8
BLACK
6
CONTINUOUS
10
112.041
20
-104.658
11
112.059
21
-104.7
0
LINE
8
BLACK
6
CONTINUOUS
10
112.059
20
-104.7
11
112.041
21
-104.742
0
LINE
8
BLACK
6
CONTINUOUS
10
112.041
20
-104.742
11
111.999
21
-104.76
0
LINE
8
BLACK
6
CONTINUOUS
10
111.999
20
-104.76
11
109.999
21
-104.76
0
LINE
8
BLACK
6
CONTINUOUS
10
109.999
20
-104.76
11
109.956
21
-104.742
0
LINE
8
BLACK
6
CONTINUOUS
10
109.956
20
-104.742
11
109.939
21
-104.7
0
LINE
8
BLACK
6
CONTINUOUS
10
109.939
20
-104.7
11
109.956
21
-104.658
0
LINE
8
BLACK
6
CONTINUOUS
10
109.956
20
-104.658
11
109.999
21
-104.64
0
LINE
8
BLACK
6
CONTINUOUS
10
109.999
20
-104.64
11
111.999
21
-104.64
0
LINE
8
BLACK
6
CONTINUOUS
10
111.999
20
-104.64
11
112.041
21
-104.658
0
LINE
8
BLACK
6
CONTINUOUS
10
114.942
20
-104.658
11
114.96
21
-104.7
0
LINE
8
BLACK
6
CONTINUOUS
10
114.96
20
-104.7
11
114.942
21
-104.742
0
LINE
8
BLACK
6
CONTINUOUS
10
114.942
20
-104.742
11
114.9
21
-104.76
0
LINE
8
BLACK
6
CONTINUOUS
10
114.9
20
-104.76
11
114
21
-104.76
0
LINE
8
BLACK
6
CONTINUOUS
10
114
20
-104.76
11
113.958
21
-104.742
0
LINE
8
BLACK
6
CONTINUOUS
10
113.958
20
-104.742
11
113.94
21
-104.7
0
LINE
8
BLACK
6
CONTINUOUS
10
113.94
20
-104.7
11
113.958
21
-104.658
0
LINE
8
BLACK
6
CONTINUOUS
10
113.958
20
-104.658
11
114
21
-104.64
0
LINE
8
BLACK
6
CONTINUOUS
10
114
20
-104.64
11
114.9
21
-104.64
0
LINE
8
BLACK
6
CONTINUOUS
10
114.9
20
-104.64
11
114.942
21
-104.658
0
LINE
8
BLACK
6
CONTINUOUS
10
108.742
20
-96.2788
11
108.76
21
-96.3212
0
LINE
8
BLACK
6
CONTINUOUS
10
108.76
20
-96.3212
11
108.76
21
-103.707
0
LINE
8
BLACK
6
CONTINUOUS
10
108.76
20
-103.707
11
108.742
21
-103.749
0
LINE
8
BLACK
6
CONTINUOUS
10
108.742
20
-103.749
11
108.7
21
-103.767
0
LINE
8
BLACK
6
CONTINUOUS
10
108.7
20
-103.767
11
108.658
21
-103.749
0
LINE
8
BLACK
6
CONTINUOUS
10
108.658
20
-103.749
11
108.64
21
-103.707
0
LINE
8
BLACK
6
CONTINUOUS
10
108.64
20
-103.707
11
108.64
21
-96.3212
0
LINE
8
BLACK
6
CONTINUOUS
10
108.64
20
-96.3212
11
108.658
21
-96.2788
0
LINE
8
BLACK
6
CONTINUOUS
10
108.658
20
-96.2788
11
108.7
21
-96.2612
0
LINE
8
BLACK
6
CONTINUOUS
10
108.7
20
-96.2612
11
108.742
21
-96.2788
0
LINE
8
BLACK
6
CONTINUOUS
10
109.807
20
-100.565
11
109.821
21
-100.6
0
LINE
8
BLACK
6
CONTINUOUS
10
109.821
20
-100.6
11
109.821
21
-100.971
0
LINE
8
BLACK
6
CONTINUOUS
10
109.821
20
-100.971
11
109.807
21
-101.007
0
LINE
8
BLACK
6
CONTINUOUS
10
109.807
20
-101.007
11
109.771
21
-101.021
0
LINE
8
BLACK
6
CONTINUOUS
10
109.771
20
-101.021
11
109.736
21
-101.007
0
LINE
8
BLACK
6
CONTINUOUS
10
109.736
20
-101.007
11
109.721
21
-100.971
0
LINE
8
BLACK
6
CONTINUOUS
10
109.721
20
-100.971
11
109.721
21
-100.721
0
LINE
8
BLACK
6
CONTINUOUS
10
109.721
20
-100.721
11
109.464
21
-100.978
0
LINE
8
BLACK
6
CONTINUOUS
10
109.464
20
-100.978
11
109.453
21
-100.983
0
LINE
8
BLACK
6
CONTINUOUS
10
109.453
20
-100.983
11
109.444
21
-100.99
0
LINE
8
BLACK
6
CONTINUOUS
10
109.444
20
-100.99
11
109.359
21
-101.019
0
LINE
8
BLACK
6
CONTINUOUS
10
109.359
20
-101.019
11
109.35
21
-101.018
0
LINE
8
BLACK
6
CONTINUOUS
10
109.35
20
-101.018
11
109.343
21
-101.021
0
LINE
8
BLACK
6
CONTINUOUS
10
109.343
20
-101.021
11
109.286
21
-101.021
0
LINE
8
BLACK
6
CONTINUOUS
10
109.286
20
-101.021
11
109.275
21
-101.017
0
LINE
8
BLACK
6
CONTINUOUS
10
109.275
20
-101.017
11
109.263
21
-101.016
0
LINE
8
BLACK
6
CONTINUOUS
10
109.263
20
-101.016
11
109.206
21
-100.988
0
LINE
8
BLACK
6
CONTINUOUS
10
109.206
20
-100.988
11
109.201
21
-100.981
0
LINE
8
BLACK
6
CONTINUOUS
10
109.201
20
-100.981
11
109.193
21
-100.978
0
LINE
8
BLACK
6
CONTINUOUS
10
109.193
20
-100.978
11
109.165
21
-100.95
0
LINE
8
BLACK
6
CONTINUOUS
10
109.165
20
-100.95
11
109.161
21
-100.942
0
LINE
8
BLACK
6
CONTINUOUS
10
109.161
20
-100.942
11
109.155
21
-100.937
0
LINE
8
BLACK
6
CONTINUOUS
10
109.155
20
-100.937
11
109.127
21
-100.88
0
LINE
8
BLACK
6
CONTINUOUS
10
109.127
20
-100.88
11
109.126
21
-100.868
0
LINE
8
BLACK
6
CONTINUOUS
10
109.126
20
-100.868
11
109.121
21
-100.857
0
LINE
8
BLACK
6
CONTINUOUS
10
109.121
20
-100.857
11
109.121
21
-100.714
0
LINE
8
BLACK
6
CONTINUOUS
10
109.121
20
-100.714
11
109.126
21
-100.704
0
LINE
8
BLACK
6
CONTINUOUS
10
109.126
20
-100.704
11
109.127
21
-100.692
0
LINE
8
BLACK
6
CONTINUOUS
10
109.127
20
-100.692
11
109.155
21
-100.635
0
LINE
8
BLACK
6
CONTINUOUS
10
109.155
20
-100.635
11
109.161
21
-100.629
0
LINE
8
BLACK
6
CONTINUOUS
10
109.161
20
-100.629
11
109.165
21
-100.622
0
LINE
8
BLACK
6
CONTINUOUS
10
109.165
20
-100.622
11
109.193
21
-100.593
0
LINE
8
BLACK
6
CONTINUOUS
10
109.193
20
-100.593
11
109.229
21
-100.579
0
LINE
8
BLACK
6
CONTINUOUS
10
109.229
20
-100.579
11
109.264
21
-100.593
0
LINE
8
BLACK
6
CONTINUOUS
10
109.264
20
-100.593
11
109.279
21
-100.629
0
LINE
8
BLACK
6
CONTINUOUS
10
109.279
20
-100.629
11
109.264
21
-100.664
0
LINE
8
BLACK
6
CONTINUOUS
10
109.264
20
-100.664
11
109.241
21
-100.687
0
LINE
8
BLACK
6
CONTINUOUS
10
109.241
20
-100.687
11
109.221
21
-100.726
0
LINE
8
BLACK
6
CONTINUOUS
10
109.221
20
-100.726
11
109.221
21
-100.845
0
LINE
8
BLACK
6
CONTINUOUS
10
109.221
20
-100.845
11
109.241
21
-100.885
0
LINE
8
BLACK
6
CONTINUOUS
10
109.241
20
-100.885
11
109.258
21
-100.902
0
LINE
8
BLACK
6
CONTINUOUS
10
109.258
20
-100.902
11
109.298
21
-100.921
0
LINE
8
BLACK
6
CONTINUOUS
10
109.298
20
-100.921
11
109.335
21
-100.921
0
LINE
8
BLACK
6
CONTINUOUS
10
109.335
20
-100.921
11
109.402
21
-100.899
0
LINE
8
BLACK
6
CONTINUOUS
10
109.402
20
-100.899
11
109.736
21
-100.565
0
LINE
8
BLACK
6
CONTINUOUS
10
109.736
20
-100.565
11
109.771
21
-100.55
0
LINE
8
BLACK
6
CONTINUOUS
10
109.771
20
-100.55
11
109.807
21
-100.565
0
LINE
8
BLACK
6
CONTINUOUS
10
109.549
20
-100.01
11
109.555
21
-100.009
0
LINE
8
BLACK
6
CONTINUOUS
10
109.555
20
-100.009
11
109.669
21
-100.037
0
LINE
8
BLACK
6
CONTINUOUS
10
109.669
20
-100.037
11
109.674
21
-100.041
0
LINE
8
BLACK
6
CONTINUOUS
10
109.674
20
-100.041
11
109.68
21
-100.041
0
LINE
8
BLACK
6
CONTINUOUS
10
109.68
20
-100.041
11
109.737
21
-100.07
0
LINE
8
BLACK
6
CONTINUOUS
10
109.737
20
-100.07
11
109.742
21
-100.076
0
LINE
8
BLACK
6
CONTINUOUS
10
109.742
20
-100.076
11
109.75
21
-100.079
0
LINE
8
BLACK
6
CONTINUOUS
10
109.75
20
-100.079
11
109.778
21
-100.108
0
LINE
8
BLACK
6
CONTINUOUS
10
109.778
20
-100.108
11
109.781
21
-100.115
0
LINE
8
BLACK
6
CONTINUOUS
10
109.781
20
-100.115
11
109.788
21
-100.12
0
LINE
8
BLACK
6
CONTINUOUS
10
109.788
20
-100.12
11
109.816
21
-100.178
0
LINE
8
BLACK
6
CONTINUOUS
10
109.816
20
-100.178
11
109.817
21
-100.189
0
LINE
8
BLACK
6
CONTINUOUS
10
109.817
20
-100.189
11
109.821
21
-100.2
0
LINE
8
BLACK
6
CONTINUOUS
10
109.821
20
-100.2
11
109.821
21
-100.257
0
LINE
8
BLACK
6
CONTINUOUS
10
109.821
20
-100.257
11
109.817
21
-100.268
0
LINE
8
BLACK
6
CONTINUOUS
10
109.817
20
-100.268
11
109.816
21
-100.28
0
LINE
8
BLACK
6
CONTINUOUS
10
109.816
20
-100.28
11
109.788
21
-100.337
0
LINE
8
BLACK
6
CONTINUOUS
10
109.788
20
-100.337
11
109.781
21
-100.342
0
LINE
8
BLACK
6
CONTINUOUS
10
109.781
20
-100.342
11
109.778
21
-100.35
0
LINE
8
BLACK
6
CONTINUOUS
10
109.778
20
-100.35
11
109.75
21
-100.378
0
LINE
8
BLACK
6
CONTINUOUS
10
109.75
20
-100.378
11
109.742
21
-100.381
0
LINE
8
BLACK
6
CONTINUOUS
10
109.742
20
-100.381
11
109.737
21
-100.388
0
LINE
8
BLACK
6
CONTINUOUS
10
109.737
20
-100.388
11
109.68
21
-100.416
0
LINE
8
BLACK
6
CONTINUOUS
10
109.68
20
-100.416
11
109.674
21
-100.417
0
LINE
8
BLACK
6
CONTINUOUS
10
109.674
20
-100.417
11
109.669
21
-100.42
0
LINE
8
BLACK
6
CONTINUOUS
10
109.669
20
-100.42
11
109.555
21
-100.449
0
LINE
8
BLACK
6
CONTINUOUS
10
109.555
20
-100.449
11
109.549
21
-100.448
0
LINE
8
BLACK
6
CONTINUOUS
10
109.549
20
-100.448
11
109.543
21
-100.45
0
LINE
8
BLACK
6
CONTINUOUS
10
109.543
20
-100.45
11
109.4
21
-100.45
0
LINE
8
BLACK
6
CONTINUOUS
10
109.4
20
-100.45
11
109.394
21
-100.448
0
LINE
8
BLACK
6
CONTINUOUS
10
109.394
20
-100.448
11
109.388
21
-100.449
0
LINE
8
BLACK
6
CONTINUOUS
10
109.388
20
-100.449
11
109.274
21
-100.42
0
LINE
8
BLACK
6
CONTINUOUS
10
109.274
20
-100.42
11
109.269
21
-100.417
0
LINE
8
BLACK
6
CONTINUOUS
10
109.269
20
-100.417
11
109.263
21
-100.416
0
LINE
8
BLACK
6
CONTINUOUS
10
109.263
20
-100.416
11
109.206
21
-100.388
0
LINE
8
BLACK
6
CONTINUOUS
10
109.206
20
-100.388
11
109.201
21
-100.381
0
LINE
8
BLACK
6
CONTINUOUS
10
109.201
20
-100.381
11
109.193
21
-100.378
0
LINE
8
BLACK
6
CONTINUOUS
10
109.193
20
-100.378
11
109.165
21
-100.35
0
LINE
8
BLACK
6
CONTINUOUS
10
109.165
20
-100.35
11
109.161
21
-100.342
0
LINE
8
BLACK
6
CONTINUOUS
10
109.161
20
-100.342
11
109.155
21
-100.337
0
LINE
8
BLACK
6
CONTINUOUS
10
109.155
20
-100.337
11
109.127
21
-100.28
0
LINE
8
BLACK
6
CONTINUOUS
10
109.127
20
-100.28
11
109.126
21
-100.268
0
LINE
8
BLACK
6
CONTINUOUS
10
109.126
20
-100.268
11
109.121
21
-100.257
0
LINE
8
BLACK
6
CONTINUOUS
10
109.121
20
-100.257
11
109.121
21
-100.2
0
LINE
8
BLACK
6
CONTINUOUS
10
109.121
20
-100.2
11
109.126
21
-100.189
0
LINE
8
BLACK
6
CONTINUOUS
10
109.126
20
-100.189
11
109.127
21
-100.178
0
LINE
8
BLACK
6
CONTINUOUS
10
109.127
20
-100.178
11
109.155
21
-100.12
0
LINE
8
BLACK
6
CONTINUOUS
10
109.155
20
-100.12
11
109.161
21
-100.115
0
LINE
8
BLACK
6
CONTINUOUS
10
109.161
20
-100.115
11
109.165
21
-100.108
0
LINE
8
BLACK
6
CONTINUOUS
10
109.165
20
-100.108
11
109.193
21
-100.079
0
LINE
8
BLACK
6
CONTINUOUS
10
109.193
20
-100.079
11
109.201
21
-100.076
0
LINE
8
BLACK
6
CONTINUOUS
10
109.201
20
-100.076
11
109.206
21
-100.07
0
LINE
8
BLACK
6
CONTINUOUS
10
109.206
20
-100.07
11
109.263
21
-100.041
0
LINE
8
BLACK
6
CONTINUOUS
10
109.263
20
-100.041
11
109.269
21
-100.041
0
LINE
8
BLACK
6
CONTINUOUS
10
109.269
20
-100.041
11
109.274
21
-100.037
0
LINE
8
BLACK
6
CONTINUOUS
10
109.274
20
-100.037
11
109.388
21
-100.009
0
LINE
8
BLACK
6
CONTINUOUS
10
109.388
20
-100.009
11
109.394
21
-100.01
0
LINE
8
BLACK
6
CONTINUOUS
10
109.394
20
-100.01
11
109.4
21
-100.007
0
LINE
8
BLACK
6
CONTINUOUS
10
109.4
20
-100.007
11
109.543
21
-100.007
0
LINE
8
BLACK
6
CONTINUOUS
10
109.543
20
-100.007
11
109.549
21
-100.01
0
LINE
8
BLACK
6
CONTINUOUS
10
109.406
20
-100.107
11
109.303
21
-100.133
0
LINE
8
BLACK
6
CONTINUOUS
10
109.303
20
-100.133
11
109.258
21
-100.155
0
LINE
8
BLACK
6
CONTINUOUS
10
109.258
20
-100.155
11
109.241
21
-100.172
0
LINE
8
BLACK
6
CONTINUOUS
10
109.241
20
-100.172
11
109.221
21
-100.212
0
LINE
8
BLACK
6
CONTINUOUS
10
109.221
20
-100.212
11
109.221
21
-100.245
0
LINE
8
BLACK
6
CONTINUOUS
10
109.221
20
-100.245
11
109.241
21
-100.285
0
LINE
8
BLACK
6
CONTINUOUS
10
109.241
20
-100.285
11
109.258
21
-100.302
0
LINE
8
BLACK
6
CONTINUOUS
10
109.258
20
-100.302
11
109.303
21
-100.324
0
LINE
8
BLACK
6
CONTINUOUS
10
109.303
20
-100.324
11
109.406
21
-100.35
0
LINE
8
BLACK
6
CONTINUOUS
10
109.406
20
-100.35
11
109.537
21
-100.35
0
LINE
8
BLACK
6
CONTINUOUS
10
109.537
20
-100.35
11
109.64
21
-100.324
0
LINE
8
BLACK
6
CONTINUOUS
10
109.64
20
-100.324
11
109.685
21
-100.302
0
LINE
8
BLACK
6
CONTINUOUS
10
109.685
20
-100.302
11
109.702
21
-100.285
0
LINE
8
BLACK
6
CONTINUOUS
10
109.702
20
-100.285
11
109.721
21
-100.245
0
LINE
8
BLACK
6
CONTINUOUS
10
109.721
20
-100.245
11
109.721
21
-100.212
0
LINE
8
BLACK
6
CONTINUOUS
10
109.721
20
-100.212
11
109.702
21
-100.172
0
LINE
8
BLACK
6
CONTINUOUS
10
109.702
20
-100.172
11
109.685
21
-100.155
0
LINE
8
BLACK
6
CONTINUOUS
10
109.685
20
-100.155
11
109.64
21
-100.133
0
LINE
8
BLACK
6
CONTINUOUS
10
109.64
20
-100.133
11
109.537
21
-100.107
0
LINE
8
BLACK
6
CONTINUOUS
10
109.537
20
-100.107
11
109.406
21
-100.107
0
LINE
8
BLACK
6
CONTINUOUS
10
109.807
20
-99.4504
11
109.821
21
-99.4857
0
LINE
8
BLACK
6
CONTINUOUS
10
109.821
20
-99.4857
11
109.821
21
-99.8286
0
LINE
8
BLACK
6
CONTINUOUS
10
109.821
20
-99.8286
11
109.807
21
-99.8639
0
LINE
8
BLACK
6
CONTINUOUS
10
109.807
20
-99.8639
11
109.771
21
-99.8786
0
LINE
8
BLACK
6
CONTINUOUS
10
109.771
20
-99.8786
11
109.736
21
-99.8639
0
LINE
8
BLACK
6
CONTINUOUS
10
109.736
20
-99.8639
11
109.721
21
-99.8286
0
LINE
8
BLACK
6
CONTINUOUS
10
109.721
20
-99.8286
11
109.721
21
-99.7071
0
LINE
8
BLACK
6
CONTINUOUS
10
109.721
20
-99.7071
11
109.171
21
-99.7071
0
LINE
8
BLACK
6
CONTINUOUS
10
109.171
20
-99.7071
11
109.167
21
-99.7052
0
LINE
8
BLACK
6
CONTINUOUS
10
109.167
20
-99.7052
11
109.162
21
-99.7062
0
LINE
8
BLACK
6
CONTINUOUS
10
109.162
20
-99.7062
11
109.15
21
-99.6981
0
LINE
8
BLACK
6
CONTINUOUS
10
109.15
20
-99.6981
11
109.136
21
-99.6925
0
LINE
8
BLACK
6
CONTINUOUS
10
109.136
20
-99.6925
11
109.134
21
-99.6877
0
LINE
8
BLACK
6
CONTINUOUS
10
109.134
20
-99.6877
11
109.13
21
-99.6849
0
LINE
8
BLACK
6
CONTINUOUS
10
109.13
20
-99.6849
11
109.127
21
-99.6706
0
LINE
8
BLACK
6
CONTINUOUS
10
109.127
20
-99.6706
11
109.121
21
-99.6571
0
LINE
8
BLACK
6
CONTINUOUS
10
109.121
20
-99.6571
11
109.123
21
-99.6524
0
LINE
8
BLACK
6
CONTINUOUS
10
109.123
20
-99.6524
11
109.122
21
-99.6473
0
LINE
8
BLACK
6
CONTINUOUS
10
109.122
20
-99.6473
11
109.131
21
-99.6352
0
LINE
8
BLACK
6
CONTINUOUS
10
109.131
20
-99.6352
11
109.136
21
-99.6218
0
LINE
8
BLACK
6
CONTINUOUS
10
109.136
20
-99.6218
11
109.141
21
-99.6198
0
LINE
8
BLACK
6
CONTINUOUS
10
109.141
20
-99.6198
11
109.144
21
-99.6155
0
LINE
8
BLACK
6
CONTINUOUS
10
109.144
20
-99.6155
11
109.225
21
-99.5611
0
LINE
8
BLACK
6
CONTINUOUS
10
109.225
20
-99.5611
11
109.273
21
-99.5132
0
LINE
8
BLACK
6
CONTINUOUS
10
109.273
20
-99.5132
11
109.298
21
-99.4634
0
LINE
8
BLACK
6
CONTINUOUS
10
109.298
20
-99.4634
11
109.327
21
-99.4383
0
LINE
8
BLACK
6
CONTINUOUS
10
109.327
20
-99.4383
11
109.365
21
-99.441
0
LINE
8
BLACK
6
CONTINUOUS
10
109.365
20
-99.441
11
109.39
21
-99.4699
0
LINE
8
BLACK
6
CONTINUOUS
10
109.39
20
-99.4699
11
109.388
21
-99.5081
0
LINE
8
BLACK
6
CONTINUOUS
10
109.388
20
-99.5081
11
109.359
21
-99.5652
0
LINE
8
BLACK
6
CONTINUOUS
10
109.359
20
-99.5652
11
109.353
21
-99.5706
0
LINE
8
BLACK
6
CONTINUOUS
10
109.353
20
-99.5706
11
109.35
21
-99.5782
0
LINE
8
BLACK
6
CONTINUOUS
10
109.35
20
-99.5782
11
109.321
21
-99.6071
0
LINE
8
BLACK
6
CONTINUOUS
10
109.321
20
-99.6071
11
109.721
21
-99.6071
0
LINE
8
BLACK
6
CONTINUOUS
10
109.721
20
-99.6071
11
109.721
21
-99.4857
0
LINE
8
BLACK
6
CONTINUOUS
10
109.721
20
-99.4857
11
109.736
21
-99.4504
0
LINE
8
BLACK
6
CONTINUOUS
10
109.736
20
-99.4504
11
109.771
21
-99.4357
0
LINE
8
BLACK
6
CONTINUOUS
10
109.771
20
-99.4357
11
109.807
21
-99.4504
0
LINE
8
BLACK
6
CONTINUOUS
10
109.807
20
-98.9646
11
109.821
21
-99
0
LINE
8
BLACK
6
CONTINUOUS
10
109.821
20
-99
11
109.821
21
-99.0571
0
LINE
8
BLACK
6
CONTINUOUS
10
109.821
20
-99.0571
11
109.818
21
-99.0647
0
LINE
8
BLACK
6
CONTINUOUS
10
109.818
20
-99.0647
11
109.819
21
-99.073
0
LINE
8
BLACK
6
CONTINUOUS
10
109.819
20
-99.073
11
109.79
21
-99.1587
0
LINE
8
BLACK
6
CONTINUOUS
10
109.79
20
-99.1587
11
109.783
21
-99.1675
0
LINE
8
BLACK
6
CONTINUOUS
10
109.783
20
-99.1675
11
109.778
21
-99.1782
0
LINE
8
BLACK
6
CONTINUOUS
10
109.778
20
-99.1782
11
109.721
21
-99.2354
0
LINE
8
BLACK
6
CONTINUOUS
10
109.721
20
-99.2354
11
109.71
21
-99.2398
0
LINE
8
BLACK
6
CONTINUOUS
10
109.71
20
-99.2398
11
109.702
21
-99.2474
0
LINE
8
BLACK
6
CONTINUOUS
10
109.702
20
-99.2474
11
109.616
21
-99.276
0
LINE
8
BLACK
6
CONTINUOUS
10
109.616
20
-99.276
11
109.608
21
-99.2754
0
LINE
8
BLACK
6
CONTINUOUS
10
109.608
20
-99.2754
11
109.6
21
-99.2786
0
LINE
8
BLACK
6
CONTINUOUS
10
109.6
20
-99.2786
11
109.171
21
-99.2786
0
LINE
8
BLACK
6
CONTINUOUS
10
109.171
20
-99.2786
11
109.136
21
-99.2639
0
LINE
8
BLACK
6
CONTINUOUS
10
109.136
20
-99.2639
11
109.121
21
-99.2286
0
LINE
8
BLACK
6
CONTINUOUS
10
109.121
20
-99.2286
11
109.136
21
-99.1932
0
LINE
8
BLACK
6
CONTINUOUS
10
109.136
20
-99.1932
11
109.171
21
-99.1786
0
LINE
8
BLACK
6
CONTINUOUS
10
109.171
20
-99.1786
11
109.592
21
-99.1786
0
LINE
8
BLACK
6
CONTINUOUS
10
109.592
20
-99.1786
11
109.659
21
-99.1563
0
LINE
8
BLACK
6
CONTINUOUS
10
109.659
20
-99.1563
11
109.699
21
-99.1158
0
LINE
8
BLACK
6
CONTINUOUS
10
109.699
20
-99.1158
11
109.721
21
-99.049
0
LINE
8
BLACK
6
CONTINUOUS
10
109.721
20
-99.049
11
109.721
21
-99
0
LINE
8
BLACK
6
CONTINUOUS
10
109.721
20
-99
11
109.736
21
-98.9646
0
LINE
8
BLACK
6
CONTINUOUS
10
109.736
20
-98.9646
11
109.771
21
-98.95
0
LINE
8
BLACK
6
CONTINUOUS
10
109.771
20
-98.95
11
109.807
21
-98.9646
0
LINE
8
BLACK
6
CONTINUOUS
10
114.942
20
-95.2576
11
114.96
21
-95.3
0
LINE
8
BLACK
6
CONTINUOUS
10
114.96
20
-95.3
11
114.942
21
-95.3424
0
LINE
8
BLACK
6
CONTINUOUS
10
114.942
20
-95.3424
11
114.9
21
-95.36
0
LINE
8
BLACK
6
CONTINUOUS
10
114.9
20
-95.36
11
114
21
-95.36
0
LINE
8
BLACK
6
CONTINUOUS
10
114
20
-95.36
11
113.958
21
-95.3424
0
LINE
8
BLACK
6
CONTINUOUS
10
113.958
20
-95.3424
11
113.94
21
-95.3
0
LINE
8
BLACK
6
CONTINUOUS
10
113.94
20
-95.3
11
113.958
21
-95.2576
0
LINE
8
BLACK
6
CONTINUOUS
10
113.958
20
-95.2576
11
114
21
-95.24
0
LINE
8
BLACK
6
CONTINUOUS
10
114
20
-95.24
11
114.9
21
-95.24
0
LINE
8
BLACK
6
CONTINUOUS
10
114.9
20
-95.24
11
114.942
21
-95.2576
0
LINE
8
BLACK
6
CONTINUOUS
10
112.041
20
-95.2576
11
112.059
21
-95.3
0
LINE
8
BLACK
6
CONTINUOUS
10
112.059
20
-95.3
11
112.041
21
-95.3424
0
LINE
8
BLACK
6
CONTINUOUS
10
112.041
20
-95.3424
11
111.999
21
-95.36
0
LINE
8
BLACK
6
CONTINUOUS
10
111.999
20
-95.36
11
109.999
21
-95.36
0
LINE
8
BLACK
6
CONTINUOUS
10
109.999
20
-95.36
11
109.956
21
-95.3424
0
LINE
8
BLACK
6
CONTINUOUS
10
109.956
20
-95.3424
11
109.939
21
-95.3
0
LINE
8
BLACK
6
CONTINUOUS
10
109.939
20
-95.3
11
109.956
21
-95.2576
0
LINE
8
BLACK
6
CONTINUOUS
10
109.956
20
-95.2576
11
109.999
21
-95.24
0
LINE
8
BLACK
6
CONTINUOUS
10
109.999
20
-95.24
11
111.999
21
-95.24
0
LINE
8
BLACK
6
CONTINUOUS
10
111.999
20
-95.24
11
112.041
21
-95.2576
  0
ENDSEC
  0
EOF
