  0
SECTION
  2
HEADER
  9
$ANGBASE
  50
0.0
  9
$ANGDIR
  70
1
  9
$MEASUREMENT
  70
1
  0
ENDSEC
  0
SECTION
  2
TABLES
  0
TABLE
  2
LTYPE
  70
4
  0
LTYPE
  5
40F
  2
CONTINUOUS
  70
0
  3
Solid line
  72
65
  73
0
  40
0.0
  0
LTYPE
  5
410
  2
DASHDOT
 70
0
  3
Dash Dot ____ _ ____ _
 72
65
 73
4
 40
2.0
 49
1.25
 49
-0.25
 49
0.25
 49
-0.25
  0
LTYPE
  5
411
  2
DASHED
 70
0
  3
Dashed __ __ __ __ __
 72
65
 73
2
 40
0.75
 49
0.5
 49
-0.25
  0
LTYPE
  5
43B
  2
DOTTED
 70
0
  3
Dotted .  .  .  .
 72
65
 73
2
 40
0.2
 49
0.0
 49
-0.2
  0
ENDTAB
  0
TABLE
  2
STYLE
  70
4
  0
STYLE
  2
KICAD
  70
0
  40
0
  41
1
  42
1
  50
0
  71
0
  3
isocp.shx
  0
STYLE
  2
KICADB
  70
0
  40
0
  41
1
  42
1
  50
0
  71
0
  3
isocp.shx
  0
STYLE
  2
KICADI
  70
0
  40
0
  41
1
  42
1
  50
15
  71
0
  3
isocp.shx
  0
STYLE
  2
KICADBI
  70
0
  40
0
  41
1
  42
1
  50
15
  71
0
  3
isocp.shx
  0
ENDTAB
  0
TABLE
  2
LAYER
  70
1
  0
LAYER
  2
BLACK
  70
0
  62
7
  6
CONTINUOUS
  0
ENDTAB
  0
ENDSEC
  0
SECTION
  2
ENTITIES
0
LINE
8
BLACK
6
CONTINUOUS
10
104.003
20
-99.5152
11
103.996
21
-99.4975
0
LINE
8
BLACK
6
CONTINUOUS
10
103.996
20
-99.4975
11
103.996
21
-99.3547
0
LINE
8
BLACK
6
CONTINUOUS
10
103.996
20
-99.3547
11
103.998
21
-99.3509
0
LINE
8
BLACK
6
CONTINUOUS
10
103.998
20
-99.3509
11
103.997
21
-99.3468
0
LINE
8
BLACK
6
CONTINUOUS
10
103.997
20
-99.3468
11
104.026
21
-99.261
0
LINE
8
BLACK
6
CONTINUOUS
10
104.026
20
-99.261
11
104.03
21
-99.2566
0
LINE
8
BLACK
6
CONTINUOUS
10
104.03
20
-99.2566
11
104.032
21
-99.2513
0
LINE
8
BLACK
6
CONTINUOUS
10
104.032
20
-99.2513
11
104.089
21
-99.1941
0
LINE
8
BLACK
6
CONTINUOUS
10
104.089
20
-99.1941
11
104.093
21
-99.1925
0
LINE
8
BLACK
6
CONTINUOUS
10
104.093
20
-99.1925
11
104.096
21
-99.1894
0
LINE
8
BLACK
6
CONTINUOUS
10
104.096
20
-99.1894
11
104.153
21
-99.1609
0
LINE
8
BLACK
6
CONTINUOUS
10
104.153
20
-99.1609
11
104.155
21
-99.1607
0
LINE
8
BLACK
6
CONTINUOUS
10
104.155
20
-99.1607
11
104.158
21
-99.159
0
LINE
8
BLACK
6
CONTINUOUS
10
104.158
20
-99.159
11
104.272
21
-99.1304
0
LINE
8
BLACK
6
CONTINUOUS
10
104.272
20
-99.1304
11
104.275
21
-99.1309
0
LINE
8
BLACK
6
CONTINUOUS
10
104.275
20
-99.1309
11
104.278
21
-99.1297
0
LINE
8
BLACK
6
CONTINUOUS
10
104.278
20
-99.1297
11
104.364
21
-99.1297
0
LINE
8
BLACK
6
CONTINUOUS
10
104.364
20
-99.1297
11
104.367
21
-99.1309
0
LINE
8
BLACK
6
CONTINUOUS
10
104.367
20
-99.1309
11
104.37
21
-99.1304
0
LINE
8
BLACK
6
CONTINUOUS
10
104.37
20
-99.1304
11
104.484
21
-99.159
0
LINE
8
BLACK
6
CONTINUOUS
10
104.484
20
-99.159
11
104.486
21
-99.1607
0
LINE
8
BLACK
6
CONTINUOUS
10
104.486
20
-99.1607
11
104.489
21
-99.1609
0
LINE
8
BLACK
6
CONTINUOUS
10
104.489
20
-99.1609
11
104.546
21
-99.1894
0
LINE
8
BLACK
6
CONTINUOUS
10
104.546
20
-99.1894
11
104.549
21
-99.1925
0
LINE
8
BLACK
6
CONTINUOUS
10
104.549
20
-99.1925
11
104.553
21
-99.1941
0
LINE
8
BLACK
6
CONTINUOUS
10
104.553
20
-99.1941
11
104.61
21
-99.2513
0
LINE
8
BLACK
6
CONTINUOUS
10
104.61
20
-99.2513
11
104.612
21
-99.2566
0
LINE
8
BLACK
6
CONTINUOUS
10
104.612
20
-99.2566
11
104.616
21
-99.261
0
LINE
8
BLACK
6
CONTINUOUS
10
104.616
20
-99.261
11
104.645
21
-99.3468
0
LINE
8
BLACK
6
CONTINUOUS
10
104.645
20
-99.3468
11
104.644
21
-99.3509
0
LINE
8
BLACK
6
CONTINUOUS
10
104.644
20
-99.3509
11
104.646
21
-99.3547
0
LINE
8
BLACK
6
CONTINUOUS
10
104.646
20
-99.3547
11
104.646
21
-99.4975
0
LINE
8
BLACK
6
CONTINUOUS
10
104.646
20
-99.4975
11
104.639
21
-99.5152
0
LINE
8
BLACK
6
CONTINUOUS
10
104.639
20
-99.5152
11
104.621
21
-99.5225
0
LINE
8
BLACK
6
CONTINUOUS
10
104.621
20
-99.5225
11
104.021
21
-99.5225
0
LINE
8
BLACK
6
CONTINUOUS
10
104.021
20
-99.5225
11
104.003
21
-99.5152
0
LINE
8
BLACK
6
CONTINUOUS
10
104.281
20
-99.1797
11
104.173
21
-99.2068
0
LINE
8
BLACK
6
CONTINUOUS
10
104.173
20
-99.2068
11
104.121
21
-99.2323
0
LINE
8
BLACK
6
CONTINUOUS
10
104.121
20
-99.2323
11
104.071
21
-99.2824
0
LINE
8
BLACK
6
CONTINUOUS
10
104.071
20
-99.2824
11
104.046
21
-99.3587
0
LINE
8
BLACK
6
CONTINUOUS
10
104.046
20
-99.3587
11
104.046
21
-99.4725
0
LINE
8
BLACK
6
CONTINUOUS
10
104.046
20
-99.4725
11
104.596
21
-99.4725
0
LINE
8
BLACK
6
CONTINUOUS
10
104.596
20
-99.4725
11
104.596
21
-99.3587
0
LINE
8
BLACK
6
CONTINUOUS
10
104.596
20
-99.3587
11
104.571
21
-99.2824
0
LINE
8
BLACK
6
CONTINUOUS
10
104.571
20
-99.2824
11
104.52
21
-99.2323
0
LINE
8
BLACK
6
CONTINUOUS
10
104.52
20
-99.2323
11
104.469
21
-99.2068
0
LINE
8
BLACK
6
CONTINUOUS
10
104.469
20
-99.2068
11
104.361
21
-99.1797
0
LINE
8
BLACK
6
CONTINUOUS
10
104.361
20
-99.1797
11
104.281
21
-99.1797
0
LINE
8
BLACK
6
CONTINUOUS
10
99.2158
20
-98.937
11
99.2231
21
-98.9547
0
LINE
8
BLACK
6
CONTINUOUS
10
99.2231
20
-98.9547
11
99.2231
21
-99.0689
0
LINE
8
BLACK
6
CONTINUOUS
10
99.2231
20
-99.0689
11
99.2158
21
-99.0866
0
LINE
8
BLACK
6
CONTINUOUS
10
99.2158
20
-99.0866
11
99.1981
21
-99.0939
0
LINE
8
BLACK
6
CONTINUOUS
10
99.1981
20
-99.0939
11
99.1804
21
-99.0866
0
LINE
8
BLACK
6
CONTINUOUS
10
99.1804
20
-99.0866
11
99.1731
21
-99.0689
0
LINE
8
BLACK
6
CONTINUOUS
10
99.1731
20
-99.0689
11
99.1731
21
-98.9797
0
LINE
8
BLACK
6
CONTINUOUS
10
99.1731
20
-98.9797
11
99.0085
21
-98.9797
0
LINE
8
BLACK
6
CONTINUOUS
10
99.0085
20
-98.9797
11
98.9914
21
-98.9967
0
LINE
8
BLACK
6
CONTINUOUS
10
98.9914
20
-98.9967
11
98.966
21
-99.073
0
LINE
8
BLACK
6
CONTINUOUS
10
98.966
20
-99.073
11
98.966
21
-99.122
0
LINE
8
BLACK
6
CONTINUOUS
10
98.966
20
-99.122
11
98.9914
21
-99.1983
0
LINE
8
BLACK
6
CONTINUOUS
10
98.9914
20
-99.1983
11
99.0415
21
-99.2484
0
LINE
8
BLACK
6
CONTINUOUS
10
99.0415
20
-99.2484
11
99.0926
21
-99.2739
0
LINE
8
BLACK
6
CONTINUOUS
10
99.0926
20
-99.2739
11
99.2012
21
-99.3011
0
LINE
8
BLACK
6
CONTINUOUS
10
99.2012
20
-99.3011
11
99.2807
21
-99.3011
0
LINE
8
BLACK
6
CONTINUOUS
10
99.2807
20
-99.3011
11
99.3894
21
-99.2739
0
LINE
8
BLACK
6
CONTINUOUS
10
99.3894
20
-99.2739
11
99.4404
21
-99.2484
0
LINE
8
BLACK
6
CONTINUOUS
10
99.4404
20
-99.2484
11
99.4905
21
-99.1983
0
LINE
8
BLACK
6
CONTINUOUS
10
99.4905
20
-99.1983
11
99.516
21
-99.122
0
LINE
8
BLACK
6
CONTINUOUS
10
99.516
20
-99.122
11
99.516
21
-99.0463
0
LINE
8
BLACK
6
CONTINUOUS
10
99.516
20
-99.0463
11
99.49
21
-98.9944
0
LINE
8
BLACK
6
CONTINUOUS
10
99.49
20
-98.9944
11
99.4887
21
-98.9753
0
LINE
8
BLACK
6
CONTINUOUS
10
99.4887
20
-98.9753
11
99.5012
21
-98.9609
0
LINE
8
BLACK
6
CONTINUOUS
10
99.5012
20
-98.9609
11
99.5203
21
-98.9595
0
LINE
8
BLACK
6
CONTINUOUS
10
99.5203
20
-98.9595
11
99.5348
21
-98.972
0
LINE
8
BLACK
6
CONTINUOUS
10
99.5348
20
-98.972
11
99.5633
21
-99.0292
0
LINE
8
BLACK
6
CONTINUOUS
10
99.5633
20
-99.0292
11
99.5637
21
-99.035
0
LINE
8
BLACK
6
CONTINUOUS
10
99.5637
20
-99.035
11
99.566
21
-99.0404
0
LINE
8
BLACK
6
CONTINUOUS
10
99.566
20
-99.0404
11
99.566
21
-99.1261
0
LINE
8
BLACK
6
CONTINUOUS
10
99.566
20
-99.1261
11
99.5644
21
-99.1299
0
LINE
8
BLACK
6
CONTINUOUS
10
99.5644
20
-99.1299
11
99.5647
21
-99.134
0
LINE
8
BLACK
6
CONTINUOUS
10
99.5647
20
-99.134
11
99.5361
21
-99.2197
0
LINE
8
BLACK
6
CONTINUOUS
10
99.5361
20
-99.2197
11
99.5323
21
-99.2241
0
LINE
8
BLACK
6
CONTINUOUS
10
99.5323
20
-99.2241
11
99.5301
21
-99.2295
0
LINE
8
BLACK
6
CONTINUOUS
10
99.5301
20
-99.2295
11
99.4729
21
-99.2866
0
LINE
8
BLACK
6
CONTINUOUS
10
99.4729
20
-99.2866
11
99.4691
21
-99.2882
0
LINE
8
BLACK
6
CONTINUOUS
10
99.4691
20
-99.2882
11
99.4664
21
-99.2913
0
LINE
8
BLACK
6
CONTINUOUS
10
99.4664
20
-99.2913
11
99.4093
21
-99.3199
0
LINE
8
BLACK
6
CONTINUOUS
10
99.4093
20
-99.3199
11
99.4065
21
-99.3201
0
LINE
8
BLACK
6
CONTINUOUS
10
99.4065
20
-99.3201
11
99.4042
21
-99.3218
0
LINE
8
BLACK
6
CONTINUOUS
10
99.4042
20
-99.3218
11
99.2899
21
-99.3503
0
LINE
8
BLACK
6
CONTINUOUS
10
99.2899
20
-99.3503
11
99.2868
21
-99.3499
0
LINE
8
BLACK
6
CONTINUOUS
10
99.2868
20
-99.3499
11
99.2838
21
-99.3511
0
LINE
8
BLACK
6
CONTINUOUS
10
99.2838
20
-99.3511
11
99.1981
21
-99.3511
0
LINE
8
BLACK
6
CONTINUOUS
10
99.1981
20
-99.3511
11
99.1952
21
-99.3499
0
LINE
8
BLACK
6
CONTINUOUS
10
99.1952
20
-99.3499
11
99.1921
21
-99.3503
0
LINE
8
BLACK
6
CONTINUOUS
10
99.1921
20
-99.3503
11
99.0778
21
-99.3218
0
LINE
8
BLACK
6
CONTINUOUS
10
99.0778
20
-99.3218
11
99.0755
21
-99.3201
0
LINE
8
BLACK
6
CONTINUOUS
10
99.0755
20
-99.3201
11
99.0726
21
-99.3199
0
LINE
8
BLACK
6
CONTINUOUS
10
99.0726
20
-99.3199
11
99.0155
21
-99.2913
0
LINE
8
BLACK
6
CONTINUOUS
10
99.0155
20
-99.2913
11
99.0128
21
-99.2882
0
LINE
8
BLACK
6
CONTINUOUS
10
99.0128
20
-99.2882
11
99.009
21
-99.2866
0
LINE
8
BLACK
6
CONTINUOUS
10
99.009
20
-99.2866
11
98.9519
21
-99.2295
0
LINE
8
BLACK
6
CONTINUOUS
10
98.9519
20
-99.2295
11
98.9496
21
-99.2241
0
LINE
8
BLACK
6
CONTINUOUS
10
98.9496
20
-99.2241
11
98.9458
21
-99.2197
0
LINE
8
BLACK
6
CONTINUOUS
10
98.9458
20
-99.2197
11
98.9173
21
-99.134
0
LINE
8
BLACK
6
CONTINUOUS
10
98.9173
20
-99.134
11
98.9175
21
-99.1299
0
LINE
8
BLACK
6
CONTINUOUS
10
98.9175
20
-99.1299
11
98.916
21
-99.1261
0
LINE
8
BLACK
6
CONTINUOUS
10
98.916
20
-99.1261
11
98.916
21
-99.0689
0
LINE
8
BLACK
6
CONTINUOUS
10
98.916
20
-99.0689
11
98.9175
21
-99.0651
0
LINE
8
BLACK
6
CONTINUOUS
10
98.9175
20
-99.0651
11
98.9173
21
-99.061
0
LINE
8
BLACK
6
CONTINUOUS
10
98.9173
20
-99.061
11
98.9458
21
-98.9753
0
LINE
8
BLACK
6
CONTINUOUS
10
98.9458
20
-98.9753
11
98.9496
21
-98.9709
0
LINE
8
BLACK
6
CONTINUOUS
10
98.9496
20
-98.9709
11
98.9519
21
-98.9655
0
LINE
8
BLACK
6
CONTINUOUS
10
98.9519
20
-98.9655
11
98.9804
21
-98.937
0
LINE
8
BLACK
6
CONTINUOUS
10
98.9804
20
-98.937
11
98.9981
21
-98.9297
0
LINE
8
BLACK
6
CONTINUOUS
10
98.9981
20
-98.9297
11
99.1981
21
-98.9297
0
LINE
8
BLACK
6
CONTINUOUS
10
99.1981
20
-98.9297
11
99.2158
21
-98.937
0
LINE
8
BLACK
6
CONTINUOUS
10
102.092
20
-98.6752
11
102.105
21
-98.6896
0
LINE
8
BLACK
6
CONTINUOUS
10
102.105
20
-98.6896
11
102.103
21
-98.7087
0
LINE
8
BLACK
6
CONTINUOUS
10
102.103
20
-98.7087
11
102.089
21
-98.7212
0
LINE
8
BLACK
6
CONTINUOUS
10
102.089
20
-98.7212
11
101.56
21
-98.8975
0
LINE
8
BLACK
6
CONTINUOUS
10
101.56
20
-98.8975
11
102.089
21
-99.0738
0
LINE
8
BLACK
6
CONTINUOUS
10
102.089
20
-99.0738
11
102.103
21
-99.0863
0
LINE
8
BLACK
6
CONTINUOUS
10
102.103
20
-99.0863
11
102.105
21
-99.1054
0
LINE
8
BLACK
6
CONTINUOUS
10
102.105
20
-99.1054
11
102.092
21
-99.1199
0
LINE
8
BLACK
6
CONTINUOUS
10
102.092
20
-99.1199
11
102.073
21
-99.1212
0
LINE
8
BLACK
6
CONTINUOUS
10
102.073
20
-99.1212
11
101.473
21
-98.9212
0
LINE
8
BLACK
6
CONTINUOUS
10
101.473
20
-98.9212
11
101.472
21
-98.92
0
LINE
8
BLACK
6
CONTINUOUS
10
101.472
20
-98.92
11
101.47
21
-98.9199
0
LINE
8
BLACK
6
CONTINUOUS
10
101.47
20
-98.9199
11
101.465
21
-98.9139
0
LINE
8
BLACK
6
CONTINUOUS
10
101.465
20
-98.9139
11
101.459
21
-98.9087
0
LINE
8
BLACK
6
CONTINUOUS
10
101.459
20
-98.9087
11
101.458
21
-98.9068
0
LINE
8
BLACK
6
CONTINUOUS
10
101.458
20
-98.9068
11
101.457
21
-98.9054
0
LINE
8
BLACK
6
CONTINUOUS
10
101.457
20
-98.9054
11
101.458
21
-98.8975
0
LINE
8
BLACK
6
CONTINUOUS
10
101.458
20
-98.8975
11
101.457
21
-98.8896
0
LINE
8
BLACK
6
CONTINUOUS
10
101.457
20
-98.8896
11
101.458
21
-98.8882
0
LINE
8
BLACK
6
CONTINUOUS
10
101.458
20
-98.8882
11
101.459
21
-98.8863
0
LINE
8
BLACK
6
CONTINUOUS
10
101.459
20
-98.8863
11
101.465
21
-98.8811
0
LINE
8
BLACK
6
CONTINUOUS
10
101.465
20
-98.8811
11
101.47
21
-98.8752
0
LINE
8
BLACK
6
CONTINUOUS
10
101.47
20
-98.8752
11
101.472
21
-98.875
0
LINE
8
BLACK
6
CONTINUOUS
10
101.472
20
-98.875
11
101.473
21
-98.8738
0
LINE
8
BLACK
6
CONTINUOUS
10
101.473
20
-98.8738
11
102.073
21
-98.6738
0
LINE
8
BLACK
6
CONTINUOUS
10
102.073
20
-98.6738
11
102.092
21
-98.6752
0
LINE
8
BLACK
6
CONTINUOUS
10
104.341
20
-98.6176
11
104.346
21
-98.618
0
LINE
8
BLACK
6
CONTINUOUS
10
104.346
20
-98.618
11
104.404
21
-98.6466
0
LINE
8
BLACK
6
CONTINUOUS
10
104.404
20
-98.6466
11
104.409
21
-98.6526
0
LINE
8
BLACK
6
CONTINUOUS
10
104.409
20
-98.6526
11
104.415
21
-98.6578
0
LINE
8
BLACK
6
CONTINUOUS
10
104.415
20
-98.6578
11
104.443
21
-98.7149
0
LINE
8
BLACK
6
CONTINUOUS
10
104.443
20
-98.7149
11
104.444
21
-98.7207
0
LINE
8
BLACK
6
CONTINUOUS
10
104.444
20
-98.7207
11
104.446
21
-98.7261
0
LINE
8
BLACK
6
CONTINUOUS
10
104.446
20
-98.7261
11
104.446
21
-98.8404
0
LINE
8
BLACK
6
CONTINUOUS
10
104.446
20
-98.8404
11
104.444
21
-98.8457
0
LINE
8
BLACK
6
CONTINUOUS
10
104.444
20
-98.8457
11
104.443
21
-98.8516
0
LINE
8
BLACK
6
CONTINUOUS
10
104.443
20
-98.8516
11
104.415
21
-98.9087
0
LINE
8
BLACK
6
CONTINUOUS
10
104.415
20
-98.9087
11
104.4
21
-98.9212
0
LINE
8
BLACK
6
CONTINUOUS
10
104.4
20
-98.9212
11
104.381
21
-98.9199
0
LINE
8
BLACK
6
CONTINUOUS
10
104.381
20
-98.9199
11
104.369
21
-98.9054
0
LINE
8
BLACK
6
CONTINUOUS
10
104.369
20
-98.9054
11
104.37
21
-98.8863
0
LINE
8
BLACK
6
CONTINUOUS
10
104.37
20
-98.8863
11
104.396
21
-98.8345
0
LINE
8
BLACK
6
CONTINUOUS
10
104.396
20
-98.8345
11
104.396
21
-98.732
0
LINE
8
BLACK
6
CONTINUOUS
10
104.396
20
-98.732
11
104.374
21
-98.6876
0
LINE
8
BLACK
6
CONTINUOUS
10
104.374
20
-98.6876
11
104.329
21
-98.6654
0
LINE
8
BLACK
6
CONTINUOUS
10
104.329
20
-98.6654
11
104.294
21
-98.6654
0
LINE
8
BLACK
6
CONTINUOUS
10
104.294
20
-98.6654
11
104.275
21
-98.7034
0
LINE
8
BLACK
6
CONTINUOUS
10
104.275
20
-98.7034
11
104.275
21
-98.8404
0
LINE
8
BLACK
6
CONTINUOUS
10
104.275
20
-98.8404
11
104.272
21
-98.8457
0
LINE
8
BLACK
6
CONTINUOUS
10
104.272
20
-98.8457
11
104.272
21
-98.8516
0
LINE
8
BLACK
6
CONTINUOUS
10
104.272
20
-98.8516
11
104.243
21
-98.9087
0
LINE
8
BLACK
6
CONTINUOUS
10
104.243
20
-98.9087
11
104.237
21
-98.9139
0
LINE
8
BLACK
6
CONTINUOUS
10
104.237
20
-98.9139
11
104.232
21
-98.9199
0
LINE
8
BLACK
6
CONTINUOUS
10
104.232
20
-98.9199
11
104.175
21
-98.9484
0
LINE
8
BLACK
6
CONTINUOUS
10
104.175
20
-98.9484
11
104.169
21
-98.9489
0
LINE
8
BLACK
6
CONTINUOUS
10
104.169
20
-98.9489
11
104.164
21
-98.9511
0
LINE
8
BLACK
6
CONTINUOUS
10
104.164
20
-98.9511
11
104.107
21
-98.9511
0
LINE
8
BLACK
6
CONTINUOUS
10
104.107
20
-98.9511
11
104.101
21
-98.9489
0
LINE
8
BLACK
6
CONTINUOUS
10
104.101
20
-98.9489
11
104.096
21
-98.9484
0
LINE
8
BLACK
6
CONTINUOUS
10
104.096
20
-98.9484
11
104.038
21
-98.9199
0
LINE
8
BLACK
6
CONTINUOUS
10
104.038
20
-98.9199
11
104.033
21
-98.9139
0
LINE
8
BLACK
6
CONTINUOUS
10
104.033
20
-98.9139
11
104.027
21
-98.9087
0
LINE
8
BLACK
6
CONTINUOUS
10
104.027
20
-98.9087
11
103.999
21
-98.8516
0
LINE
8
BLACK
6
CONTINUOUS
10
103.999
20
-98.8516
11
103.998
21
-98.8457
0
LINE
8
BLACK
6
CONTINUOUS
10
103.998
20
-98.8457
11
103.996
21
-98.8404
0
LINE
8
BLACK
6
CONTINUOUS
10
103.996
20
-98.8404
11
103.996
21
-98.6975
0
LINE
8
BLACK
6
CONTINUOUS
10
103.996
20
-98.6975
11
103.998
21
-98.6921
0
LINE
8
BLACK
6
CONTINUOUS
10
103.998
20
-98.6921
11
103.999
21
-98.6863
0
LINE
8
BLACK
6
CONTINUOUS
10
103.999
20
-98.6863
11
104.011
21
-98.6613
0
LINE
8
BLACK
6
CONTINUOUS
10
104.011
20
-98.6613
11
104.003
21
-98.658
0
LINE
8
BLACK
6
CONTINUOUS
10
104.003
20
-98.658
11
103.996
21
-98.6404
0
LINE
8
BLACK
6
CONTINUOUS
10
103.996
20
-98.6404
11
104.003
21
-98.6227
0
LINE
8
BLACK
6
CONTINUOUS
10
104.003
20
-98.6227
11
104.021
21
-98.6154
0
LINE
8
BLACK
6
CONTINUOUS
10
104.021
20
-98.6154
11
104.335
21
-98.6154
0
LINE
8
BLACK
6
CONTINUOUS
10
104.335
20
-98.6154
11
104.341
21
-98.6176
0
LINE
8
BLACK
6
CONTINUOUS
10
104.065
20
-98.6654
11
104.046
21
-98.7034
0
LINE
8
BLACK
6
CONTINUOUS
10
104.046
20
-98.7034
11
104.046
21
-98.8345
0
LINE
8
BLACK
6
CONTINUOUS
10
104.046
20
-98.8345
11
104.068
21
-98.8789
0
LINE
8
BLACK
6
CONTINUOUS
10
104.068
20
-98.8789
11
104.113
21
-98.9011
0
LINE
8
BLACK
6
CONTINUOUS
10
104.113
20
-98.9011
11
104.158
21
-98.9011
0
LINE
8
BLACK
6
CONTINUOUS
10
104.158
20
-98.9011
11
104.202
21
-98.8789
0
LINE
8
BLACK
6
CONTINUOUS
10
104.202
20
-98.8789
11
104.225
21
-98.8345
0
LINE
8
BLACK
6
CONTINUOUS
10
104.225
20
-98.8345
11
104.225
21
-98.6975
0
LINE
8
BLACK
6
CONTINUOUS
10
104.225
20
-98.6975
11
104.227
21
-98.6921
0
LINE
8
BLACK
6
CONTINUOUS
10
104.227
20
-98.6921
11
104.227
21
-98.6863
0
LINE
8
BLACK
6
CONTINUOUS
10
104.227
20
-98.6863
11
104.238
21
-98.6654
0
LINE
8
BLACK
6
CONTINUOUS
10
104.238
20
-98.6654
11
104.065
21
-98.6654
0
LINE
8
BLACK
6
CONTINUOUS
10
99.5586
20
-98.337
11
99.566
21
-98.3547
0
LINE
8
BLACK
6
CONTINUOUS
10
99.566
20
-98.3547
11
99.5586
21
-98.3723
0
LINE
8
BLACK
6
CONTINUOUS
10
99.5586
20
-98.3723
11
99.541
21
-98.3797
0
LINE
8
BLACK
6
CONTINUOUS
10
99.541
20
-98.3797
11
99.0351
21
-98.3797
0
LINE
8
BLACK
6
CONTINUOUS
10
99.0351
20
-98.3797
11
99.5534
21
-98.6758
0
LINE
8
BLACK
6
CONTINUOUS
10
99.5534
20
-98.6758
11
99.5555
21
-98.6785
0
LINE
8
BLACK
6
CONTINUOUS
10
99.5555
20
-98.6785
11
99.5586
21
-98.6798
0
LINE
8
BLACK
6
CONTINUOUS
10
99.5586
20
-98.6798
11
99.5611
21
-98.6858
0
LINE
8
BLACK
6
CONTINUOUS
10
99.5611
20
-98.6858
11
99.5651
21
-98.6909
0
LINE
8
BLACK
6
CONTINUOUS
10
99.5651
20
-98.6909
11
99.5647
21
-98.6943
0
LINE
8
BLACK
6
CONTINUOUS
10
99.5647
20
-98.6943
11
99.566
21
-98.6975
0
LINE
8
BLACK
6
CONTINUOUS
10
99.566
20
-98.6975
11
99.5635
21
-98.7035
0
LINE
8
BLACK
6
CONTINUOUS
10
99.5635
20
-98.7035
11
99.5627
21
-98.7099
0
LINE
8
BLACK
6
CONTINUOUS
10
99.5627
20
-98.7099
11
99.56
21
-98.712
0
LINE
8
BLACK
6
CONTINUOUS
10
99.56
20
-98.712
11
99.5586
21
-98.7152
0
LINE
8
BLACK
6
CONTINUOUS
10
99.5586
20
-98.7152
11
99.5527
21
-98.7177
0
LINE
8
BLACK
6
CONTINUOUS
10
99.5527
20
-98.7177
11
99.5475
21
-98.7216
0
LINE
8
BLACK
6
CONTINUOUS
10
99.5475
20
-98.7216
11
99.5441
21
-98.7212
0
LINE
8
BLACK
6
CONTINUOUS
10
99.5441
20
-98.7212
11
99.541
21
-98.7225
0
LINE
8
BLACK
6
CONTINUOUS
10
99.541
20
-98.7225
11
98.941
21
-98.7225
0
LINE
8
BLACK
6
CONTINUOUS
10
98.941
20
-98.7225
11
98.9233
21
-98.7152
0
LINE
8
BLACK
6
CONTINUOUS
10
98.9233
20
-98.7152
11
98.916
21
-98.6975
0
LINE
8
BLACK
6
CONTINUOUS
10
98.916
20
-98.6975
11
98.9233
21
-98.6798
0
LINE
8
BLACK
6
CONTINUOUS
10
98.9233
20
-98.6798
11
98.941
21
-98.6725
0
LINE
8
BLACK
6
CONTINUOUS
10
98.941
20
-98.6725
11
99.4468
21
-98.6725
0
LINE
8
BLACK
6
CONTINUOUS
10
99.4468
20
-98.6725
11
98.9286
21
-98.3764
0
LINE
8
BLACK
6
CONTINUOUS
10
98.9286
20
-98.3764
11
98.9265
21
-98.3736
0
LINE
8
BLACK
6
CONTINUOUS
10
98.9265
20
-98.3736
11
98.9233
21
-98.3723
0
LINE
8
BLACK
6
CONTINUOUS
10
98.9233
20
-98.3723
11
98.9208
21
-98.3664
0
LINE
8
BLACK
6
CONTINUOUS
10
98.9208
20
-98.3664
11
98.9169
21
-98.3612
0
LINE
8
BLACK
6
CONTINUOUS
10
98.9169
20
-98.3612
11
98.9173
21
-98.3578
0
LINE
8
BLACK
6
CONTINUOUS
10
98.9173
20
-98.3578
11
98.916
21
-98.3547
0
LINE
8
BLACK
6
CONTINUOUS
10
98.916
20
-98.3547
11
98.9184
21
-98.3487
0
LINE
8
BLACK
6
CONTINUOUS
10
98.9184
20
-98.3487
11
98.9193
21
-98.3423
0
LINE
8
BLACK
6
CONTINUOUS
10
98.9193
20
-98.3423
11
98.922
21
-98.3402
0
LINE
8
BLACK
6
CONTINUOUS
10
98.922
20
-98.3402
11
98.9233
21
-98.337
0
LINE
8
BLACK
6
CONTINUOUS
10
98.9233
20
-98.337
11
98.9293
21
-98.3345
0
LINE
8
BLACK
6
CONTINUOUS
10
98.9293
20
-98.3345
11
98.9344
21
-98.3305
0
LINE
8
BLACK
6
CONTINUOUS
10
98.9344
20
-98.3305
11
98.9378
21
-98.331
0
LINE
8
BLACK
6
CONTINUOUS
10
98.9378
20
-98.331
11
98.941
21
-98.3297
0
LINE
8
BLACK
6
CONTINUOUS
10
98.941
20
-98.3297
11
99.541
21
-98.3297
0
LINE
8
BLACK
6
CONTINUOUS
10
99.541
20
-98.3297
11
99.5586
21
-98.337
0
LINE
8
BLACK
6
CONTINUOUS
10
101.521
20
-98.218
11
101.533
21
-98.2325
0
LINE
8
BLACK
6
CONTINUOUS
10
101.533
20
-98.2325
11
101.532
21
-98.2516
0
LINE
8
BLACK
6
CONTINUOUS
10
101.532
20
-98.2516
11
101.506
21
-98.3034
0
LINE
8
BLACK
6
CONTINUOUS
10
101.506
20
-98.3034
11
101.506
21
-98.4059
0
LINE
8
BLACK
6
CONTINUOUS
10
101.506
20
-98.4059
11
101.53
21
-98.4541
0
LINE
8
BLACK
6
CONTINUOUS
10
101.53
20
-98.4541
11
101.553
21
-98.477
0
LINE
8
BLACK
6
CONTINUOUS
10
101.553
20
-98.477
11
101.601
21
-98.5011
0
LINE
8
BLACK
6
CONTINUOUS
10
101.601
20
-98.5011
11
101.761
21
-98.5011
0
LINE
8
BLACK
6
CONTINUOUS
10
101.761
20
-98.5011
11
101.809
21
-98.477
0
LINE
8
BLACK
6
CONTINUOUS
10
101.809
20
-98.477
11
101.832
21
-98.4541
0
LINE
8
BLACK
6
CONTINUOUS
10
101.832
20
-98.4541
11
101.856
21
-98.4059
0
LINE
8
BLACK
6
CONTINUOUS
10
101.856
20
-98.4059
11
101.856
21
-98.3034
0
LINE
8
BLACK
6
CONTINUOUS
10
101.856
20
-98.3034
11
101.83
21
-98.2516
0
LINE
8
BLACK
6
CONTINUOUS
10
101.83
20
-98.2516
11
101.829
21
-98.2325
0
LINE
8
BLACK
6
CONTINUOUS
10
101.829
20
-98.2325
11
101.841
21
-98.218
0
LINE
8
BLACK
6
CONTINUOUS
10
101.841
20
-98.218
11
101.86
21
-98.2167
0
LINE
8
BLACK
6
CONTINUOUS
10
101.86
20
-98.2167
11
101.875
21
-98.2292
0
LINE
8
BLACK
6
CONTINUOUS
10
101.875
20
-98.2292
11
101.903
21
-98.2863
0
LINE
8
BLACK
6
CONTINUOUS
10
101.903
20
-98.2863
11
101.904
21
-98.2921
0
LINE
8
BLACK
6
CONTINUOUS
10
101.904
20
-98.2921
11
101.906
21
-98.2975
0
LINE
8
BLACK
6
CONTINUOUS
10
101.906
20
-98.2975
11
101.906
21
-98.4118
0
LINE
8
BLACK
6
CONTINUOUS
10
101.906
20
-98.4118
11
101.904
21
-98.4172
0
LINE
8
BLACK
6
CONTINUOUS
10
101.904
20
-98.4172
11
101.903
21
-98.423
0
LINE
8
BLACK
6
CONTINUOUS
10
101.903
20
-98.423
11
101.875
21
-98.4801
0
LINE
8
BLACK
6
CONTINUOUS
10
101.875
20
-98.4801
11
101.872
21
-98.4828
0
LINE
8
BLACK
6
CONTINUOUS
10
101.872
20
-98.4828
11
101.87
21
-98.4866
0
LINE
8
BLACK
6
CONTINUOUS
10
101.87
20
-98.4866
11
101.842
21
-98.5152
0
LINE
8
BLACK
6
CONTINUOUS
10
101.842
20
-98.5152
11
101.838
21
-98.5168
0
LINE
8
BLACK
6
CONTINUOUS
10
101.838
20
-98.5168
11
101.835
21
-98.5199
0
LINE
8
BLACK
6
CONTINUOUS
10
101.835
20
-98.5199
11
101.778
21
-98.5484
0
LINE
8
BLACK
6
CONTINUOUS
10
101.778
20
-98.5484
11
101.772
21
-98.5489
0
LINE
8
BLACK
6
CONTINUOUS
10
101.772
20
-98.5489
11
101.767
21
-98.5511
0
LINE
8
BLACK
6
CONTINUOUS
10
101.767
20
-98.5511
11
101.595
21
-98.5511
0
LINE
8
BLACK
6
CONTINUOUS
10
101.595
20
-98.5511
11
101.59
21
-98.5489
0
LINE
8
BLACK
6
CONTINUOUS
10
101.59
20
-98.5489
11
101.584
21
-98.5484
0
LINE
8
BLACK
6
CONTINUOUS
10
101.584
20
-98.5484
11
101.527
21
-98.5199
0
LINE
8
BLACK
6
CONTINUOUS
10
101.527
20
-98.5199
11
101.524
21
-98.5168
0
LINE
8
BLACK
6
CONTINUOUS
10
101.524
20
-98.5168
11
101.52
21
-98.5152
0
LINE
8
BLACK
6
CONTINUOUS
10
101.52
20
-98.5152
11
101.492
21
-98.4866
0
LINE
8
BLACK
6
CONTINUOUS
10
101.492
20
-98.4866
11
101.49
21
-98.4828
0
LINE
8
BLACK
6
CONTINUOUS
10
101.49
20
-98.4828
11
101.487
21
-98.4801
0
LINE
8
BLACK
6
CONTINUOUS
10
101.487
20
-98.4801
11
101.459
21
-98.423
0
LINE
8
BLACK
6
CONTINUOUS
10
101.459
20
-98.423
11
101.458
21
-98.4172
0
LINE
8
BLACK
6
CONTINUOUS
10
101.458
20
-98.4172
11
101.456
21
-98.4118
0
LINE
8
BLACK
6
CONTINUOUS
10
101.456
20
-98.4118
11
101.456
21
-98.2975
0
LINE
8
BLACK
6
CONTINUOUS
10
101.456
20
-98.2975
11
101.458
21
-98.2921
0
LINE
8
BLACK
6
CONTINUOUS
10
101.458
20
-98.2921
11
101.459
21
-98.2863
0
LINE
8
BLACK
6
CONTINUOUS
10
101.459
20
-98.2863
11
101.487
21
-98.2292
0
LINE
8
BLACK
6
CONTINUOUS
10
101.487
20
-98.2292
11
101.502
21
-98.2167
0
LINE
8
BLACK
6
CONTINUOUS
10
101.502
20
-98.2167
11
101.521
21
-98.218
0
LINE
8
BLACK
6
CONTINUOUS
10
104.439
20
-98.1941
11
104.446
21
-98.2118
0
LINE
8
BLACK
6
CONTINUOUS
10
104.446
20
-98.2118
11
104.446
21
-98.3297
0
LINE
8
BLACK
6
CONTINUOUS
10
104.446
20
-98.3297
11
104.621
21
-98.3297
0
LINE
8
BLACK
6
CONTINUOUS
10
104.621
20
-98.3297
11
104.639
21
-98.337
0
LINE
8
BLACK
6
CONTINUOUS
10
104.639
20
-98.337
11
104.646
21
-98.3547
0
LINE
8
BLACK
6
CONTINUOUS
10
104.646
20
-98.3547
11
104.639
21
-98.3723
0
LINE
8
BLACK
6
CONTINUOUS
10
104.639
20
-98.3723
11
104.621
21
-98.3797
0
LINE
8
BLACK
6
CONTINUOUS
10
104.621
20
-98.3797
11
104.446
21
-98.3797
0
LINE
8
BLACK
6
CONTINUOUS
10
104.446
20
-98.3797
11
104.446
21
-98.4404
0
LINE
8
BLACK
6
CONTINUOUS
10
104.446
20
-98.4404
11
104.439
21
-98.458
0
LINE
8
BLACK
6
CONTINUOUS
10
104.439
20
-98.458
11
104.421
21
-98.4654
0
LINE
8
BLACK
6
CONTINUOUS
10
104.421
20
-98.4654
11
104.403
21
-98.458
0
LINE
8
BLACK
6
CONTINUOUS
10
104.403
20
-98.458
11
104.396
21
-98.4404
0
LINE
8
BLACK
6
CONTINUOUS
10
104.396
20
-98.4404
11
104.396
21
-98.3797
0
LINE
8
BLACK
6
CONTINUOUS
10
104.396
20
-98.3797
11
104.107
21
-98.3797
0
LINE
8
BLACK
6
CONTINUOUS
10
104.107
20
-98.3797
11
104.101
21
-98.3774
0
LINE
8
BLACK
6
CONTINUOUS
10
104.101
20
-98.3774
11
104.096
21
-98.377
0
LINE
8
BLACK
6
CONTINUOUS
10
104.096
20
-98.377
11
104.038
21
-98.3484
0
LINE
8
BLACK
6
CONTINUOUS
10
104.038
20
-98.3484
11
104.033
21
-98.3425
0
LINE
8
BLACK
6
CONTINUOUS
10
104.033
20
-98.3425
11
104.027
21
-98.3373
0
LINE
8
BLACK
6
CONTINUOUS
10
104.027
20
-98.3373
11
103.999
21
-98.2801
0
LINE
8
BLACK
6
CONTINUOUS
10
103.999
20
-98.2801
11
103.998
21
-98.2743
0
LINE
8
BLACK
6
CONTINUOUS
10
103.998
20
-98.2743
11
103.996
21
-98.2689
0
LINE
8
BLACK
6
CONTINUOUS
10
103.996
20
-98.2689
11
103.996
21
-98.2118
0
LINE
8
BLACK
6
CONTINUOUS
10
103.996
20
-98.2118
11
104.003
21
-98.1941
0
LINE
8
BLACK
6
CONTINUOUS
10
104.003
20
-98.1941
11
104.021
21
-98.1868
0
LINE
8
BLACK
6
CONTINUOUS
10
104.021
20
-98.1868
11
104.039
21
-98.1941
0
LINE
8
BLACK
6
CONTINUOUS
10
104.039
20
-98.1941
11
104.046
21
-98.2118
0
LINE
8
BLACK
6
CONTINUOUS
10
104.046
20
-98.2118
11
104.046
21
-98.263
0
LINE
8
BLACK
6
CONTINUOUS
10
104.046
20
-98.263
11
104.068
21
-98.3075
0
LINE
8
BLACK
6
CONTINUOUS
10
104.068
20
-98.3075
11
104.113
21
-98.3297
0
LINE
8
BLACK
6
CONTINUOUS
10
104.113
20
-98.3297
11
104.396
21
-98.3297
0
LINE
8
BLACK
6
CONTINUOUS
10
104.396
20
-98.3297
11
104.396
21
-98.2118
0
LINE
8
BLACK
6
CONTINUOUS
10
104.396
20
-98.2118
11
104.403
21
-98.1941
0
LINE
8
BLACK
6
CONTINUOUS
10
104.403
20
-98.1941
11
104.421
21
-98.1868
0
LINE
8
BLACK
6
CONTINUOUS
10
104.421
20
-98.1868
11
104.439
21
-98.1941
0
LINE
8
BLACK
6
CONTINUOUS
10
98.9233
20
-98.0866
11
98.916
21
-98.0689
0
LINE
8
BLACK
6
CONTINUOUS
10
98.916
20
-98.0689
11
98.916
21
-97.9261
0
LINE
8
BLACK
6
CONTINUOUS
10
98.916
20
-97.9261
11
98.9175
21
-97.9223
0
LINE
8
BLACK
6
CONTINUOUS
10
98.9175
20
-97.9223
11
98.9173
21
-97.9182
0
LINE
8
BLACK
6
CONTINUOUS
10
98.9173
20
-97.9182
11
98.9458
21
-97.8325
0
LINE
8
BLACK
6
CONTINUOUS
10
98.9458
20
-97.8325
11
98.9496
21
-97.8281
0
LINE
8
BLACK
6
CONTINUOUS
10
98.9496
20
-97.8281
11
98.9519
21
-97.8227
0
LINE
8
BLACK
6
CONTINUOUS
10
98.9519
20
-97.8227
11
99.009
21
-97.7656
0
LINE
8
BLACK
6
CONTINUOUS
10
99.009
20
-97.7656
11
99.0128
21
-97.764
0
LINE
8
BLACK
6
CONTINUOUS
10
99.0128
20
-97.764
11
99.0155
21
-97.7609
0
LINE
8
BLACK
6
CONTINUOUS
10
99.0155
20
-97.7609
11
99.0726
21
-97.7323
0
LINE
8
BLACK
6
CONTINUOUS
10
99.0726
20
-97.7323
11
99.0755
21
-97.7321
0
LINE
8
BLACK
6
CONTINUOUS
10
99.0755
20
-97.7321
11
99.0778
21
-97.7304
0
LINE
8
BLACK
6
CONTINUOUS
10
99.0778
20
-97.7304
11
99.192
21
-97.7018
0
LINE
8
BLACK
6
CONTINUOUS
10
99.192
20
-97.7018
11
99.1952
21
-97.7023
0
LINE
8
BLACK
6
CONTINUOUS
10
99.1952
20
-97.7023
11
99.1981
21
-97.7011
0
LINE
8
BLACK
6
CONTINUOUS
10
99.1981
20
-97.7011
11
99.2838
21
-97.7011
0
LINE
8
BLACK
6
CONTINUOUS
10
99.2838
20
-97.7011
11
99.2868
21
-97.7023
0
LINE
8
BLACK
6
CONTINUOUS
10
99.2868
20
-97.7023
11
99.2899
21
-97.7018
0
LINE
8
BLACK
6
CONTINUOUS
10
99.2899
20
-97.7018
11
99.4042
21
-97.7304
0
LINE
8
BLACK
6
CONTINUOUS
10
99.4042
20
-97.7304
11
99.4065
21
-97.7321
0
LINE
8
BLACK
6
CONTINUOUS
10
99.4065
20
-97.7321
11
99.4093
21
-97.7323
0
LINE
8
BLACK
6
CONTINUOUS
10
99.4093
20
-97.7323
11
99.4664
21
-97.7609
0
LINE
8
BLACK
6
CONTINUOUS
10
99.4664
20
-97.7609
11
99.4691
21
-97.764
0
LINE
8
BLACK
6
CONTINUOUS
10
99.4691
20
-97.764
11
99.4729
21
-97.7655
0
LINE
8
BLACK
6
CONTINUOUS
10
99.4729
20
-97.7655
11
99.5301
21
-97.8227
0
LINE
8
BLACK
6
CONTINUOUS
10
99.5301
20
-97.8227
11
99.5323
21
-97.8281
0
LINE
8
BLACK
6
CONTINUOUS
10
99.5323
20
-97.8281
11
99.5361
21
-97.8325
0
LINE
8
BLACK
6
CONTINUOUS
10
99.5361
20
-97.8325
11
99.5647
21
-97.9182
0
LINE
8
BLACK
6
CONTINUOUS
10
99.5647
20
-97.9182
11
99.5644
21
-97.9223
0
LINE
8
BLACK
6
CONTINUOUS
10
99.5644
20
-97.9223
11
99.566
21
-97.9261
0
LINE
8
BLACK
6
CONTINUOUS
10
99.566
20
-97.9261
11
99.566
21
-98.0689
0
LINE
8
BLACK
6
CONTINUOUS
10
99.566
20
-98.0689
11
99.5586
21
-98.0866
0
LINE
8
BLACK
6
CONTINUOUS
10
99.5586
20
-98.0866
11
99.541
21
-98.0939
0
LINE
8
BLACK
6
CONTINUOUS
10
99.541
20
-98.0939
11
98.941
21
-98.0939
0
LINE
8
BLACK
6
CONTINUOUS
10
98.941
20
-98.0939
11
98.9233
21
-98.0866
0
LINE
8
BLACK
6
CONTINUOUS
10
99.2012
20
-97.7511
11
99.0926
21
-97.7782
0
LINE
8
BLACK
6
CONTINUOUS
10
99.0926
20
-97.7782
11
99.0415
21
-97.8038
0
LINE
8
BLACK
6
CONTINUOUS
10
99.0415
20
-97.8038
11
98.9914
21
-97.8539
0
LINE
8
BLACK
6
CONTINUOUS
10
98.9914
20
-97.8539
11
98.966
21
-97.9301
0
LINE
8
BLACK
6
CONTINUOUS
10
98.966
20
-97.9301
11
98.966
21
-98.0439
0
LINE
8
BLACK
6
CONTINUOUS
10
98.966
20
-98.0439
11
99.516
21
-98.0439
0
LINE
8
BLACK
6
CONTINUOUS
10
99.516
20
-98.0439
11
99.516
21
-97.9301
0
LINE
8
BLACK
6
CONTINUOUS
10
99.516
20
-97.9301
11
99.4905
21
-97.8539
0
LINE
8
BLACK
6
CONTINUOUS
10
99.4905
20
-97.8539
11
99.4404
21
-97.8038
0
LINE
8
BLACK
6
CONTINUOUS
10
99.4404
20
-97.8038
11
99.3894
21
-97.7782
0
LINE
8
BLACK
6
CONTINUOUS
10
99.3894
20
-97.7782
11
99.2807
21
-97.7511
0
LINE
8
BLACK
6
CONTINUOUS
10
99.2807
20
-97.7511
11
99.2012
21
-97.7511
0
LINE
8
BLACK
6
CONTINUOUS
10
104.341
20
-97.7319
11
104.346
21
-97.7323
0
LINE
8
BLACK
6
CONTINUOUS
10
104.346
20
-97.7323
11
104.404
21
-97.7609
0
LINE
8
BLACK
6
CONTINUOUS
10
104.404
20
-97.7609
11
104.409
21
-97.7669
0
LINE
8
BLACK
6
CONTINUOUS
10
104.409
20
-97.7669
11
104.415
21
-97.772
0
LINE
8
BLACK
6
CONTINUOUS
10
104.415
20
-97.772
11
104.443
21
-97.8292
0
LINE
8
BLACK
6
CONTINUOUS
10
104.443
20
-97.8292
11
104.444
21
-97.835
0
LINE
8
BLACK
6
CONTINUOUS
10
104.444
20
-97.835
11
104.446
21
-97.8404
0
LINE
8
BLACK
6
CONTINUOUS
10
104.446
20
-97.8404
11
104.446
21
-97.9547
0
LINE
8
BLACK
6
CONTINUOUS
10
104.446
20
-97.9547
11
104.444
21
-97.96
0
LINE
8
BLACK
6
CONTINUOUS
10
104.444
20
-97.96
11
104.443
21
-97.9658
0
LINE
8
BLACK
6
CONTINUOUS
10
104.443
20
-97.9658
11
104.415
21
-98.023
0
LINE
8
BLACK
6
CONTINUOUS
10
104.415
20
-98.023
11
104.4
21
-98.0355
0
LINE
8
BLACK
6
CONTINUOUS
10
104.4
20
-98.0355
11
104.381
21
-98.0342
0
LINE
8
BLACK
6
CONTINUOUS
10
104.381
20
-98.0342
11
104.369
21
-98.0197
0
LINE
8
BLACK
6
CONTINUOUS
10
104.369
20
-98.0197
11
104.37
21
-98.0006
0
LINE
8
BLACK
6
CONTINUOUS
10
104.37
20
-98.0006
11
104.396
21
-97.9488
0
LINE
8
BLACK
6
CONTINUOUS
10
104.396
20
-97.9488
11
104.396
21
-97.8463
0
LINE
8
BLACK
6
CONTINUOUS
10
104.396
20
-97.8463
11
104.374
21
-97.8019
0
LINE
8
BLACK
6
CONTINUOUS
10
104.374
20
-97.8019
11
104.329
21
-97.7797
0
LINE
8
BLACK
6
CONTINUOUS
10
104.329
20
-97.7797
11
104.294
21
-97.7797
0
LINE
8
BLACK
6
CONTINUOUS
10
104.294
20
-97.7797
11
104.275
21
-97.8177
0
LINE
8
BLACK
6
CONTINUOUS
10
104.275
20
-97.8177
11
104.275
21
-97.9547
0
LINE
8
BLACK
6
CONTINUOUS
10
104.275
20
-97.9547
11
104.272
21
-97.96
0
LINE
8
BLACK
6
CONTINUOUS
10
104.272
20
-97.96
11
104.272
21
-97.9658
0
LINE
8
BLACK
6
CONTINUOUS
10
104.272
20
-97.9658
11
104.243
21
-98.023
0
LINE
8
BLACK
6
CONTINUOUS
10
104.243
20
-98.023
11
104.237
21
-98.0282
0
LINE
8
BLACK
6
CONTINUOUS
10
104.237
20
-98.0282
11
104.232
21
-98.0342
0
LINE
8
BLACK
6
CONTINUOUS
10
104.232
20
-98.0342
11
104.175
21
-98.0627
0
LINE
8
BLACK
6
CONTINUOUS
10
104.175
20
-98.0627
11
104.169
21
-98.0631
0
LINE
8
BLACK
6
CONTINUOUS
10
104.169
20
-98.0631
11
104.164
21
-98.0654
0
LINE
8
BLACK
6
CONTINUOUS
10
104.164
20
-98.0654
11
104.107
21
-98.0654
0
LINE
8
BLACK
6
CONTINUOUS
10
104.107
20
-98.0654
11
104.101
21
-98.0631
0
LINE
8
BLACK
6
CONTINUOUS
10
104.101
20
-98.0631
11
104.096
21
-98.0627
0
LINE
8
BLACK
6
CONTINUOUS
10
104.096
20
-98.0627
11
104.038
21
-98.0342
0
LINE
8
BLACK
6
CONTINUOUS
10
104.038
20
-98.0342
11
104.033
21
-98.0282
0
LINE
8
BLACK
6
CONTINUOUS
10
104.033
20
-98.0282
11
104.027
21
-98.023
0
LINE
8
BLACK
6
CONTINUOUS
10
104.027
20
-98.023
11
103.999
21
-97.9658
0
LINE
8
BLACK
6
CONTINUOUS
10
103.999
20
-97.9658
11
103.998
21
-97.96
0
LINE
8
BLACK
6
CONTINUOUS
10
103.998
20
-97.96
11
103.996
21
-97.9547
0
LINE
8
BLACK
6
CONTINUOUS
10
103.996
20
-97.9547
11
103.996
21
-97.8118
0
LINE
8
BLACK
6
CONTINUOUS
10
103.996
20
-97.8118
11
103.998
21
-97.8064
0
LINE
8
BLACK
6
CONTINUOUS
10
103.998
20
-97.8064
11
103.999
21
-97.8006
0
LINE
8
BLACK
6
CONTINUOUS
10
103.999
20
-97.8006
11
104.011
21
-97.7756
0
LINE
8
BLACK
6
CONTINUOUS
10
104.011
20
-97.7756
11
104.003
21
-97.7723
0
LINE
8
BLACK
6
CONTINUOUS
10
104.003
20
-97.7723
11
103.996
21
-97.7547
0
LINE
8
BLACK
6
CONTINUOUS
10
103.996
20
-97.7547
11
104.003
21
-97.737
0
LINE
8
BLACK
6
CONTINUOUS
10
104.003
20
-97.737
11
104.021
21
-97.7297
0
LINE
8
BLACK
6
CONTINUOUS
10
104.021
20
-97.7297
11
104.335
21
-97.7297
0
LINE
8
BLACK
6
CONTINUOUS
10
104.335
20
-97.7297
11
104.341
21
-97.7319
0
LINE
8
BLACK
6
CONTINUOUS
10
104.065
20
-97.7797
11
104.046
21
-97.8177
0
LINE
8
BLACK
6
CONTINUOUS
10
104.046
20
-97.8177
11
104.046
21
-97.9488
0
LINE
8
BLACK
6
CONTINUOUS
10
104.046
20
-97.9488
11
104.068
21
-97.9932
0
LINE
8
BLACK
6
CONTINUOUS
10
104.068
20
-97.9932
11
104.113
21
-98.0154
0
LINE
8
BLACK
6
CONTINUOUS
10
104.113
20
-98.0154
11
104.158
21
-98.0154
0
LINE
8
BLACK
6
CONTINUOUS
10
104.158
20
-98.0154
11
104.202
21
-97.9932
0
LINE
8
BLACK
6
CONTINUOUS
10
104.202
20
-97.9932
11
104.225
21
-97.9488
0
LINE
8
BLACK
6
CONTINUOUS
10
104.225
20
-97.9488
11
104.225
21
-97.8118
0
LINE
8
BLACK
6
CONTINUOUS
10
104.225
20
-97.8118
11
104.227
21
-97.8064
0
LINE
8
BLACK
6
CONTINUOUS
10
104.227
20
-97.8064
11
104.227
21
-97.8006
0
LINE
8
BLACK
6
CONTINUOUS
10
104.227
20
-97.8006
11
104.238
21
-97.7797
0
LINE
8
BLACK
6
CONTINUOUS
10
104.238
20
-97.7797
11
104.065
21
-97.7797
0
LINE
8
BLACK
6
CONTINUOUS
10
101.521
20
-97.7037
11
101.533
21
-97.7182
0
LINE
8
BLACK
6
CONTINUOUS
10
101.533
20
-97.7182
11
101.532
21
-97.7373
0
LINE
8
BLACK
6
CONTINUOUS
10
101.532
20
-97.7373
11
101.506
21
-97.7891
0
LINE
8
BLACK
6
CONTINUOUS
10
101.506
20
-97.7891
11
101.506
21
-97.8916
0
LINE
8
BLACK
6
CONTINUOUS
10
101.506
20
-97.8916
11
101.53
21
-97.9398
0
LINE
8
BLACK
6
CONTINUOUS
10
101.53
20
-97.9398
11
101.553
21
-97.9627
0
LINE
8
BLACK
6
CONTINUOUS
10
101.553
20
-97.9627
11
101.601
21
-97.9868
0
LINE
8
BLACK
6
CONTINUOUS
10
101.601
20
-97.9868
11
101.761
21
-97.9868
0
LINE
8
BLACK
6
CONTINUOUS
10
101.761
20
-97.9868
11
101.809
21
-97.9627
0
LINE
8
BLACK
6
CONTINUOUS
10
101.809
20
-97.9627
11
101.832
21
-97.9398
0
LINE
8
BLACK
6
CONTINUOUS
10
101.832
20
-97.9398
11
101.856
21
-97.8916
0
LINE
8
BLACK
6
CONTINUOUS
10
101.856
20
-97.8916
11
101.856
21
-97.7891
0
LINE
8
BLACK
6
CONTINUOUS
10
101.856
20
-97.7891
11
101.83
21
-97.7373
0
LINE
8
BLACK
6
CONTINUOUS
10
101.83
20
-97.7373
11
101.829
21
-97.7182
0
LINE
8
BLACK
6
CONTINUOUS
10
101.829
20
-97.7182
11
101.841
21
-97.7037
0
LINE
8
BLACK
6
CONTINUOUS
10
101.841
20
-97.7037
11
101.86
21
-97.7024
0
LINE
8
BLACK
6
CONTINUOUS
10
101.86
20
-97.7024
11
101.875
21
-97.7149
0
LINE
8
BLACK
6
CONTINUOUS
10
101.875
20
-97.7149
11
101.903
21
-97.772
0
LINE
8
BLACK
6
CONTINUOUS
10
101.903
20
-97.772
11
101.904
21
-97.7779
0
LINE
8
BLACK
6
CONTINUOUS
10
101.904
20
-97.7779
11
101.906
21
-97.7832
0
LINE
8
BLACK
6
CONTINUOUS
10
101.906
20
-97.7832
11
101.906
21
-97.8975
0
LINE
8
BLACK
6
CONTINUOUS
10
101.906
20
-97.8975
11
101.904
21
-97.9029
0
LINE
8
BLACK
6
CONTINUOUS
10
101.904
20
-97.9029
11
101.903
21
-97.9087
0
LINE
8
BLACK
6
CONTINUOUS
10
101.903
20
-97.9087
11
101.875
21
-97.9658
0
LINE
8
BLACK
6
CONTINUOUS
10
101.875
20
-97.9658
11
101.872
21
-97.9685
0
LINE
8
BLACK
6
CONTINUOUS
10
101.872
20
-97.9685
11
101.87
21
-97.9723
0
LINE
8
BLACK
6
CONTINUOUS
10
101.87
20
-97.9723
11
101.842
21
-98.0009
0
LINE
8
BLACK
6
CONTINUOUS
10
101.842
20
-98.0009
11
101.838
21
-98.0025
0
LINE
8
BLACK
6
CONTINUOUS
10
101.838
20
-98.0025
11
101.835
21
-98.0056
0
LINE
8
BLACK
6
CONTINUOUS
10
101.835
20
-98.0056
11
101.778
21
-98.0342
0
LINE
8
BLACK
6
CONTINUOUS
10
101.778
20
-98.0342
11
101.772
21
-98.0346
0
LINE
8
BLACK
6
CONTINUOUS
10
101.772
20
-98.0346
11
101.767
21
-98.0368
0
LINE
8
BLACK
6
CONTINUOUS
10
101.767
20
-98.0368
11
101.595
21
-98.0368
0
LINE
8
BLACK
6
CONTINUOUS
10
101.595
20
-98.0368
11
101.59
21
-98.0346
0
LINE
8
BLACK
6
CONTINUOUS
10
101.59
20
-98.0346
11
101.584
21
-98.0342
0
LINE
8
BLACK
6
CONTINUOUS
10
101.584
20
-98.0342
11
101.527
21
-98.0056
0
LINE
8
BLACK
6
CONTINUOUS
10
101.527
20
-98.0056
11
101.524
21
-98.0025
0
LINE
8
BLACK
6
CONTINUOUS
10
101.524
20
-98.0025
11
101.52
21
-98.0009
0
LINE
8
BLACK
6
CONTINUOUS
10
101.52
20
-98.0009
11
101.492
21
-97.9723
0
LINE
8
BLACK
6
CONTINUOUS
10
101.492
20
-97.9723
11
101.49
21
-97.9685
0
LINE
8
BLACK
6
CONTINUOUS
10
101.49
20
-97.9685
11
101.487
21
-97.9658
0
LINE
8
BLACK
6
CONTINUOUS
10
101.487
20
-97.9658
11
101.459
21
-97.9087
0
LINE
8
BLACK
6
CONTINUOUS
10
101.459
20
-97.9087
11
101.458
21
-97.9029
0
LINE
8
BLACK
6
CONTINUOUS
10
101.458
20
-97.9029
11
101.456
21
-97.8975
0
LINE
8
BLACK
6
CONTINUOUS
10
101.456
20
-97.8975
11
101.456
21
-97.7832
0
LINE
8
BLACK
6
CONTINUOUS
10
101.456
20
-97.7832
11
101.458
21
-97.7779
0
LINE
8
BLACK
6
CONTINUOUS
10
101.458
20
-97.7779
11
101.459
21
-97.772
0
LINE
8
BLACK
6
CONTINUOUS
10
101.459
20
-97.772
11
101.487
21
-97.7149
0
LINE
8
BLACK
6
CONTINUOUS
10
101.487
20
-97.7149
11
101.502
21
-97.7024
0
LINE
8
BLACK
6
CONTINUOUS
10
101.502
20
-97.7024
11
101.521
21
-97.7037
0
LINE
8
BLACK
6
CONTINUOUS
10
105.357
20
-97.0359
11
105.311
21
-97.1468
0
LINE
8
BLACK
6
CONTINUOUS
10
105.311
20
-97.1468
11
105.238
21
-97.2421
0
LINE
8
BLACK
6
CONTINUOUS
10
105.238
20
-97.2421
11
105.142
21
-97.3152
0
LINE
8
BLACK
6
CONTINUOUS
10
105.142
20
-97.3152
11
105.031
21
-97.3611
0
LINE
8
BLACK
6
CONTINUOUS
10
105.031
20
-97.3611
11
104.912
21
-97.3768
0
LINE
8
BLACK
6
CONTINUOUS
10
104.912
20
-97.3768
11
98.6124
21
-97.3768
0
LINE
8
BLACK
6
CONTINUOUS
10
98.6124
20
-97.3768
11
98.4933
21
-97.3611
0
LINE
8
BLACK
6
CONTINUOUS
10
98.4933
20
-97.3611
11
98.3824
21
-97.3152
0
LINE
8
BLACK
6
CONTINUOUS
10
98.3824
20
-97.3152
11
98.2871
21
-97.2421
0
LINE
8
BLACK
6
CONTINUOUS
10
98.2871
20
-97.2421
11
98.214
21
-97.1468
0
LINE
8
BLACK
6
CONTINUOUS
10
98.214
20
-97.1468
11
98.1681
21
-97.0359
0
LINE
8
BLACK
6
CONTINUOUS
10
98.1681
20
-97.0359
11
98.1524
21
-96.9168
0
LINE
8
BLACK
6
CONTINUOUS
10
98.1524
20
-96.9168
11
98.1524
21
-94.4168
0
LINE
8
BLACK
6
CONTINUOUS
10
98.1524
20
-94.4168
11
98.1681
21
-94.2977
0
LINE
8
BLACK
6
CONTINUOUS
10
98.1681
20
-94.2977
11
98.214
21
-94.1868
0
LINE
8
BLACK
6
CONTINUOUS
10
98.214
20
-94.1868
11
98.2871
21
-94.0915
0
LINE
8
BLACK
6
CONTINUOUS
10
98.2871
20
-94.0915
11
98.3824
21
-94.0184
0
LINE
8
BLACK
6
CONTINUOUS
10
98.3824
20
-94.0184
11
98.4933
21
-93.9725
0
LINE
8
BLACK
6
CONTINUOUS
10
98.4933
20
-93.9725
11
98.6124
21
-93.9568
0
LINE
8
BLACK
6
CONTINUOUS
10
98.6124
20
-93.9568
11
104.912
21
-93.9568
0
LINE
8
BLACK
6
CONTINUOUS
10
104.912
20
-93.9568
11
105.031
21
-93.9725
0
LINE
8
BLACK
6
CONTINUOUS
10
105.031
20
-93.9725
11
105.142
21
-94.0184
0
LINE
8
BLACK
6
CONTINUOUS
10
105.142
20
-94.0184
11
105.238
21
-94.0915
0
LINE
8
BLACK
6
CONTINUOUS
10
105.238
20
-94.0915
11
105.311
21
-94.1868
0
LINE
8
BLACK
6
CONTINUOUS
10
105.311
20
-94.1868
11
105.357
21
-94.2977
0
LINE
8
BLACK
6
CONTINUOUS
10
105.357
20
-94.2977
11
105.372
21
-94.4168
0
LINE
8
BLACK
6
CONTINUOUS
10
105.372
20
-94.4168
11
105.372
21
-96.9168
0
LINE
8
BLACK
6
CONTINUOUS
10
105.372
20
-96.9168
11
105.357
21
-97.0359
0
LINE
8
BLACK
6
CONTINUOUS
10
105.001
20
-97.248
11
105.084
21
-97.2138
0
LINE
8
BLACK
6
CONTINUOUS
10
105.084
20
-97.2138
11
105.155
21
-97.1593
0
LINE
8
BLACK
6
CONTINUOUS
10
105.155
20
-97.1593
11
105.209
21
-97.0883
0
LINE
8
BLACK
6
CONTINUOUS
10
105.209
20
-97.0883
11
105.244
21
-97.0056
0
LINE
8
BLACK
6
CONTINUOUS
10
105.244
20
-97.0056
11
105.255
21
-96.9222
0
LINE
8
BLACK
6
CONTINUOUS
10
105.255
20
-96.9222
11
105.252
21
-96.9168
0
LINE
8
BLACK
6
CONTINUOUS
10
105.252
20
-96.9168
11
105.252
21
-95.4068
0
LINE
8
BLACK
6
CONTINUOUS
10
105.252
20
-95.4068
11
98.2724
21
-95.4068
0
LINE
8
BLACK
6
CONTINUOUS
10
98.2724
20
-95.4068
11
98.2724
21
-96.9168
0
LINE
8
BLACK
6
CONTINUOUS
10
98.2724
20
-96.9168
11
98.2702
21
-96.9222
0
LINE
8
BLACK
6
CONTINUOUS
10
98.2702
20
-96.9222
11
98.2812
21
-97.0056
0
LINE
8
BLACK
6
CONTINUOUS
10
98.2812
20
-97.0056
11
98.3154
21
-97.0883
0
LINE
8
BLACK
6
CONTINUOUS
10
98.3154
20
-97.0883
11
98.3699
21
-97.1593
0
LINE
8
BLACK
6
CONTINUOUS
10
98.3699
20
-97.1593
11
98.4409
21
-97.2138
0
LINE
8
BLACK
6
CONTINUOUS
10
98.4409
20
-97.2138
11
98.5236
21
-97.248
0
LINE
8
BLACK
6
CONTINUOUS
10
98.5236
20
-97.248
11
98.607
21
-97.259
0
LINE
8
BLACK
6
CONTINUOUS
10
98.607
20
-97.259
11
98.6124
21
-97.2568
0
LINE
8
BLACK
6
CONTINUOUS
10
98.6124
20
-97.2568
11
104.912
21
-97.2568
0
LINE
8
BLACK
6
CONTINUOUS
10
104.912
20
-97.2568
11
104.918
21
-97.259
0
LINE
8
BLACK
6
CONTINUOUS
10
104.918
20
-97.259
11
105.001
21
-97.248
0
LINE
8
BLACK
6
CONTINUOUS
10
98.607
20
-94.0746
11
98.5236
21
-94.0856
0
LINE
8
BLACK
6
CONTINUOUS
10
98.5236
20
-94.0856
11
98.4409
21
-94.1198
0
LINE
8
BLACK
6
CONTINUOUS
10
98.4409
20
-94.1198
11
98.3699
21
-94.1743
0
LINE
8
BLACK
6
CONTINUOUS
10
98.3699
20
-94.1743
11
98.3154
21
-94.2453
0
LINE
8
BLACK
6
CONTINUOUS
10
98.3154
20
-94.2453
11
98.2812
21
-94.328
0
LINE
8
BLACK
6
CONTINUOUS
10
98.2812
20
-94.328
11
98.2702
21
-94.4114
0
LINE
8
BLACK
6
CONTINUOUS
10
98.2702
20
-94.4114
11
98.2724
21
-94.4168
0
LINE
8
BLACK
6
CONTINUOUS
10
98.2724
20
-94.4168
11
98.2724
21
-95.2868
0
LINE
8
BLACK
6
CONTINUOUS
10
98.2724
20
-95.2868
11
105.252
21
-95.2868
0
LINE
8
BLACK
6
CONTINUOUS
10
105.252
20
-95.2868
11
105.252
21
-94.4168
0
LINE
8
BLACK
6
CONTINUOUS
10
105.252
20
-94.4168
11
105.255
21
-94.4114
0
LINE
8
BLACK
6
CONTINUOUS
10
105.255
20
-94.4114
11
105.244
21
-94.328
0
LINE
8
BLACK
6
CONTINUOUS
10
105.244
20
-94.328
11
105.209
21
-94.2453
0
LINE
8
BLACK
6
CONTINUOUS
10
105.209
20
-94.2453
11
105.155
21
-94.1743
0
LINE
8
BLACK
6
CONTINUOUS
10
105.155
20
-94.1743
11
105.084
21
-94.1198
0
LINE
8
BLACK
6
CONTINUOUS
10
105.084
20
-94.1198
11
105.001
21
-94.0856
0
LINE
8
BLACK
6
CONTINUOUS
10
105.001
20
-94.0856
11
104.918
21
-94.0746
0
LINE
8
BLACK
6
CONTINUOUS
10
104.918
20
-94.0746
11
104.912
21
-94.0768
0
LINE
8
BLACK
6
CONTINUOUS
10
104.912
20
-94.0768
11
98.6124
21
-94.0768
0
LINE
8
BLACK
6
CONTINUOUS
10
98.6124
20
-94.0768
11
98.607
21
-94.0746
0
LINE
8
BLACK
6
CONTINUOUS
10
101.238
20
-94.0959
11
101.242
21
-94.0953
0
LINE
8
BLACK
6
CONTINUOUS
10
101.242
20
-94.0953
11
101.245
21
-94.097
0
LINE
8
BLACK
6
CONTINUOUS
10
101.245
20
-94.097
11
101.254
21
-94.0987
0
LINE
8
BLACK
6
CONTINUOUS
10
101.254
20
-94.0987
11
101.269
21
-94.1112
0
LINE
8
BLACK
6
CONTINUOUS
10
101.269
20
-94.1112
11
101.286
21
-94.121
0
LINE
8
BLACK
6
CONTINUOUS
10
101.286
20
-94.121
11
101.288
21
-94.1273
0
LINE
8
BLACK
6
CONTINUOUS
10
101.288
20
-94.1273
11
101.294
21
-94.1317
0
LINE
8
BLACK
6
CONTINUOUS
10
101.294
20
-94.1317
11
101.297
21
-94.1509
0
LINE
8
BLACK
6
CONTINUOUS
10
101.297
20
-94.1509
11
101.304
21
-94.1692
0
LINE
8
BLACK
6
CONTINUOUS
10
101.304
20
-94.1692
11
101.304
21
-95.1692
0
LINE
8
BLACK
6
CONTINUOUS
10
101.304
20
-95.1692
11
101.302
21
-95.1789
0
LINE
8
BLACK
6
CONTINUOUS
10
101.302
20
-95.1789
11
101.302
21
-95.1822
0
LINE
8
BLACK
6
CONTINUOUS
10
101.302
20
-95.1822
11
101.301
21
-95.1851
0
LINE
8
BLACK
6
CONTINUOUS
10
101.301
20
-95.1851
11
101.299
21
-95.1948
0
LINE
8
BLACK
6
CONTINUOUS
10
101.299
20
-95.1948
11
101.287
21
-95.2098
0
LINE
8
BLACK
6
CONTINUOUS
10
101.287
20
-95.2098
11
101.277
21
-95.2266
0
LINE
8
BLACK
6
CONTINUOUS
10
101.277
20
-95.2266
11
101.27
21
-95.2289
0
LINE
8
BLACK
6
CONTINUOUS
10
101.27
20
-95.2289
11
101.266
21
-95.2341
0
LINE
8
BLACK
6
CONTINUOUS
10
101.266
20
-95.2341
11
101.247
21
-95.2375
0
LINE
8
BLACK
6
CONTINUOUS
10
101.247
20
-95.2375
11
101.229
21
-95.2442
0
LINE
8
BLACK
6
CONTINUOUS
10
101.229
20
-95.2442
11
100.99
21
-95.2442
0
LINE
8
BLACK
6
CONTINUOUS
10
100.99
20
-95.2442
11
100.968
21
-95.2403
0
LINE
8
BLACK
6
CONTINUOUS
10
100.968
20
-95.2403
11
100.967
21
-95.2403
0
LINE
8
BLACK
6
CONTINUOUS
10
100.967
20
-95.2403
11
100.824
21
-95.1927
0
LINE
8
BLACK
6
CONTINUOUS
10
100.824
20
-95.1927
11
100.801
21
-95.1803
0
LINE
8
BLACK
6
CONTINUOUS
10
100.801
20
-95.1803
11
100.799
21
-95.1765
0
LINE
8
BLACK
6
CONTINUOUS
10
100.799
20
-95.1765
11
100.795
21
-95.1746
0
LINE
8
BLACK
6
CONTINUOUS
10
100.795
20
-95.1746
11
100.699
21
-95.0794
0
LINE
8
BLACK
6
CONTINUOUS
10
100.699
20
-95.0794
11
100.687
21
-95.061
0
LINE
8
BLACK
6
CONTINUOUS
10
100.687
20
-95.061
11
100.685
21
-95.0599
0
LINE
8
BLACK
6
CONTINUOUS
10
100.685
20
-95.0599
11
100.638
21
-94.9646
0
LINE
8
BLACK
6
CONTINUOUS
10
100.638
20
-94.9646
11
100.634
21
-94.9522
0
LINE
8
BLACK
6
CONTINUOUS
10
100.634
20
-94.9522
11
100.632
21
-94.9493
0
LINE
8
BLACK
6
CONTINUOUS
10
100.632
20
-94.9493
11
100.584
21
-94.7588
0
LINE
8
BLACK
6
CONTINUOUS
10
100.584
20
-94.7588
11
100.583
21
-94.7439
0
LINE
8
BLACK
6
CONTINUOUS
10
100.583
20
-94.7439
11
100.582
21
-94.7406
0
LINE
8
BLACK
6
CONTINUOUS
10
100.582
20
-94.7406
11
100.582
21
-94.5978
0
LINE
8
BLACK
6
CONTINUOUS
10
100.582
20
-94.5978
11
100.585
21
-94.583
0
LINE
8
BLACK
6
CONTINUOUS
10
100.585
20
-94.583
11
100.584
21
-94.5796
0
LINE
8
BLACK
6
CONTINUOUS
10
100.584
20
-94.5796
11
100.632
21
-94.3891
0
LINE
8
BLACK
6
CONTINUOUS
10
100.632
20
-94.3891
11
100.637
21
-94.3773
0
LINE
8
BLACK
6
CONTINUOUS
10
100.637
20
-94.3773
11
100.638
21
-94.3737
0
LINE
8
BLACK
6
CONTINUOUS
10
100.638
20
-94.3737
11
100.685
21
-94.2785
0
LINE
8
BLACK
6
CONTINUOUS
10
100.685
20
-94.2785
11
100.699
21
-94.2605
0
LINE
8
BLACK
6
CONTINUOUS
10
100.699
20
-94.2605
11
100.699
21
-94.259
0
LINE
8
BLACK
6
CONTINUOUS
10
100.699
20
-94.259
11
100.795
21
-94.1638
0
LINE
8
BLACK
6
CONTINUOUS
10
100.795
20
-94.1638
11
100.816
21
-94.1488
0
LINE
8
BLACK
6
CONTINUOUS
10
100.816
20
-94.1488
11
100.82
21
-94.1484
0
LINE
8
BLACK
6
CONTINUOUS
10
100.82
20
-94.1484
11
100.824
21
-94.1456
0
LINE
8
BLACK
6
CONTINUOUS
10
100.824
20
-94.1456
11
100.967
21
-94.098
0
LINE
8
BLACK
6
CONTINUOUS
10
100.967
20
-94.098
11
100.989
21
-94.0947
0
LINE
8
BLACK
6
CONTINUOUS
10
100.989
20
-94.0947
11
100.99
21
-94.0942
0
LINE
8
BLACK
6
CONTINUOUS
10
100.99
20
-94.0942
11
101.229
21
-94.0942
0
LINE
8
BLACK
6
CONTINUOUS
10
101.229
20
-94.0942
11
101.238
21
-94.0959
0
LINE
8
BLACK
6
CONTINUOUS
10
101.003
20
-94.2442
11
100.888
21
-94.2824
0
LINE
8
BLACK
6
CONTINUOUS
10
100.888
20
-94.2824
11
100.814
21
-94.3565
0
LINE
8
BLACK
6
CONTINUOUS
10
100.814
20
-94.3565
11
100.776
21
-94.4335
0
LINE
8
BLACK
6
CONTINUOUS
10
100.776
20
-94.4335
11
100.732
21
-94.607
0
LINE
8
BLACK
6
CONTINUOUS
10
100.732
20
-94.607
11
100.732
21
-94.7314
0
LINE
8
BLACK
6
CONTINUOUS
10
100.732
20
-94.7314
11
100.776
21
-94.9049
0
LINE
8
BLACK
6
CONTINUOUS
10
100.776
20
-94.9049
11
100.814
21
-94.9819
0
LINE
8
BLACK
6
CONTINUOUS
10
100.814
20
-94.9819
11
100.888
21
-95.056
0
LINE
8
BLACK
6
CONTINUOUS
10
100.888
20
-95.056
11
101.003
21
-95.0942
0
LINE
8
BLACK
6
CONTINUOUS
10
101.003
20
-95.0942
11
101.154
21
-95.0942
0
LINE
8
BLACK
6
CONTINUOUS
10
101.154
20
-95.0942
11
101.154
21
-94.2442
0
LINE
8
BLACK
6
CONTINUOUS
10
101.154
20
-94.2442
11
101.003
21
-94.2442
0
LINE
8
BLACK
6
CONTINUOUS
10
103.334
20
-94.121
11
103.351
21
-94.1692
0
LINE
8
BLACK
6
CONTINUOUS
10
103.351
20
-94.1692
11
103.351
21
-94.9787
0
LINE
8
BLACK
6
CONTINUOUS
10
103.351
20
-94.9787
11
103.347
21
-95.0044
0
LINE
8
BLACK
6
CONTINUOUS
10
103.347
20
-95.0044
11
103.344
21
-95.0078
0
LINE
8
BLACK
6
CONTINUOUS
10
103.344
20
-95.0078
11
103.343
21
-95.0122
0
LINE
8
BLACK
6
CONTINUOUS
10
103.343
20
-95.0122
11
103.296
21
-95.1075
0
LINE
8
BLACK
6
CONTINUOUS
10
103.296
20
-95.1075
11
103.282
21
-95.1255
0
LINE
8
BLACK
6
CONTINUOUS
10
103.282
20
-95.1255
11
103.282
21
-95.127
0
LINE
8
BLACK
6
CONTINUOUS
10
103.282
20
-95.127
11
103.234
21
-95.1746
0
LINE
8
BLACK
6
CONTINUOUS
10
103.234
20
-95.1746
11
103.216
21
-95.1875
0
LINE
8
BLACK
6
CONTINUOUS
10
103.216
20
-95.1875
11
103.215
21
-95.1886
0
LINE
8
BLACK
6
CONTINUOUS
10
103.215
20
-95.1886
11
103.119
21
-95.2363
0
LINE
8
BLACK
6
CONTINUOUS
10
103.119
20
-95.2363
11
103.094
21
-95.2437
0
LINE
8
BLACK
6
CONTINUOUS
10
103.094
20
-95.2437
11
103.09
21
-95.2426
0
LINE
8
BLACK
6
CONTINUOUS
10
103.09
20
-95.2426
11
103.086
21
-95.2442
0
LINE
8
BLACK
6
CONTINUOUS
10
103.086
20
-95.2442
11
102.895
21
-95.2442
0
LINE
8
BLACK
6
CONTINUOUS
10
102.895
20
-95.2442
11
102.87
21
-95.2397
0
LINE
8
BLACK
6
CONTINUOUS
10
102.87
20
-95.2397
11
102.866
21
-95.2368
0
LINE
8
BLACK
6
CONTINUOUS
10
102.866
20
-95.2368
11
102.862
21
-95.2363
0
LINE
8
BLACK
6
CONTINUOUS
10
102.862
20
-95.2363
11
102.766
21
-95.1886
0
LINE
8
BLACK
6
CONTINUOUS
10
102.766
20
-95.1886
11
102.748
21
-95.1753
0
LINE
8
BLACK
6
CONTINUOUS
10
102.748
20
-95.1753
11
102.747
21
-95.1746
0
LINE
8
BLACK
6
CONTINUOUS
10
102.747
20
-95.1746
11
102.699
21
-95.127
0
LINE
8
BLACK
6
CONTINUOUS
10
102.699
20
-95.127
11
102.687
21
-95.1086
0
LINE
8
BLACK
6
CONTINUOUS
10
102.687
20
-95.1086
11
102.685
21
-95.1075
0
LINE
8
BLACK
6
CONTINUOUS
10
102.685
20
-95.1075
11
102.638
21
-95.0122
0
LINE
8
BLACK
6
CONTINUOUS
10
102.638
20
-95.0122
11
102.63
21
-94.9873
0
LINE
8
BLACK
6
CONTINUOUS
10
102.63
20
-94.9873
11
102.631
21
-94.9829
0
LINE
8
BLACK
6
CONTINUOUS
10
102.631
20
-94.9829
11
102.63
21
-94.9787
0
LINE
8
BLACK
6
CONTINUOUS
10
102.63
20
-94.9787
11
102.63
21
-94.1692
0
LINE
8
BLACK
6
CONTINUOUS
10
102.63
20
-94.1692
11
102.634
21
-94.1435
0
LINE
8
BLACK
6
CONTINUOUS
10
102.634
20
-94.1435
11
102.667
21
-94.1042
0
LINE
8
BLACK
6
CONTINUOUS
10
102.667
20
-94.1042
11
102.718
21
-94.0953
0
LINE
8
BLACK
6
CONTINUOUS
10
102.718
20
-94.0953
11
102.762
21
-94.121
0
LINE
8
BLACK
6
CONTINUOUS
10
102.762
20
-94.121
11
102.78
21
-94.1692
0
LINE
8
BLACK
6
CONTINUOUS
10
102.78
20
-94.1692
11
102.78
21
-94.961
0
LINE
8
BLACK
6
CONTINUOUS
10
102.78
20
-94.961
11
102.814
21
-95.0295
0
LINE
8
BLACK
6
CONTINUOUS
10
102.814
20
-95.0295
11
102.844
21
-95.0599
0
LINE
8
BLACK
6
CONTINUOUS
10
102.844
20
-95.0599
11
102.913
21
-95.0942
0
LINE
8
BLACK
6
CONTINUOUS
10
102.913
20
-95.0942
11
103.068
21
-95.0942
0
LINE
8
BLACK
6
CONTINUOUS
10
103.068
20
-95.0942
11
103.137
21
-95.0599
0
LINE
8
BLACK
6
CONTINUOUS
10
103.137
20
-95.0599
11
103.167
21
-95.0295
0
LINE
8
BLACK
6
CONTINUOUS
10
103.167
20
-95.0295
11
103.201
21
-94.961
0
LINE
8
BLACK
6
CONTINUOUS
10
103.201
20
-94.961
11
103.201
21
-94.1692
0
LINE
8
BLACK
6
CONTINUOUS
10
103.201
20
-94.1692
11
103.206
21
-94.1435
0
LINE
8
BLACK
6
CONTINUOUS
10
103.206
20
-94.1435
11
103.239
21
-94.1042
0
LINE
8
BLACK
6
CONTINUOUS
10
103.239
20
-94.1042
11
103.289
21
-94.0953
0
LINE
8
BLACK
6
CONTINUOUS
10
103.289
20
-94.0953
11
103.334
21
-94.121
0
LINE
8
BLACK
6
CONTINUOUS
10
100.286
20
-94.121
11
100.304
21
-94.1692
0
LINE
8
BLACK
6
CONTINUOUS
10
100.304
20
-94.1692
11
100.304
21
-95.1692
0
LINE
8
BLACK
6
CONTINUOUS
10
100.304
20
-95.1692
11
100.299
21
-95.1948
0
LINE
8
BLACK
6
CONTINUOUS
10
100.299
20
-95.1948
11
100.266
21
-95.2341
0
LINE
8
BLACK
6
CONTINUOUS
10
100.266
20
-95.2341
11
100.216
21
-95.243
0
LINE
8
BLACK
6
CONTINUOUS
10
100.216
20
-95.243
11
100.171
21
-95.2174
0
LINE
8
BLACK
6
CONTINUOUS
10
100.171
20
-95.2174
11
100.154
21
-95.1692
0
LINE
8
BLACK
6
CONTINUOUS
10
100.154
20
-95.1692
11
100.154
21
-94.1692
0
LINE
8
BLACK
6
CONTINUOUS
10
100.154
20
-94.1692
11
100.158
21
-94.1435
0
LINE
8
BLACK
6
CONTINUOUS
10
100.158
20
-94.1435
11
100.191
21
-94.1042
0
LINE
8
BLACK
6
CONTINUOUS
10
100.191
20
-94.1042
11
100.242
21
-94.0953
0
LINE
8
BLACK
6
CONTINUOUS
10
100.242
20
-94.0953
11
100.286
21
-94.121
0
LINE
8
BLACK
6
CONTINUOUS
10
102.238
20
-94.0959
11
102.242
21
-94.0953
0
LINE
8
BLACK
6
CONTINUOUS
10
102.242
20
-94.0953
11
102.245
21
-94.097
0
LINE
8
BLACK
6
CONTINUOUS
10
102.245
20
-94.097
11
102.254
21
-94.0987
0
LINE
8
BLACK
6
CONTINUOUS
10
102.254
20
-94.0987
11
102.269
21
-94.1112
0
LINE
8
BLACK
6
CONTINUOUS
10
102.269
20
-94.1112
11
102.286
21
-94.121
0
LINE
8
BLACK
6
CONTINUOUS
10
102.286
20
-94.121
11
102.288
21
-94.1273
0
LINE
8
BLACK
6
CONTINUOUS
10
102.288
20
-94.1273
11
102.294
21
-94.1317
0
LINE
8
BLACK
6
CONTINUOUS
10
102.294
20
-94.1317
11
102.297
21
-94.1509
0
LINE
8
BLACK
6
CONTINUOUS
10
102.297
20
-94.1509
11
102.304
21
-94.1692
0
LINE
8
BLACK
6
CONTINUOUS
10
102.304
20
-94.1692
11
102.304
21
-95.1692
0
LINE
8
BLACK
6
CONTINUOUS
10
102.304
20
-95.1692
11
102.299
21
-95.1948
0
LINE
8
BLACK
6
CONTINUOUS
10
102.299
20
-95.1948
11
102.266
21
-95.2341
0
LINE
8
BLACK
6
CONTINUOUS
10
102.266
20
-95.2341
11
102.216
21
-95.243
0
LINE
8
BLACK
6
CONTINUOUS
10
102.216
20
-95.243
11
102.171
21
-95.2174
0
LINE
8
BLACK
6
CONTINUOUS
10
102.171
20
-95.2174
11
102.154
21
-95.1692
0
LINE
8
BLACK
6
CONTINUOUS
10
102.154
20
-95.1692
11
102.154
21
-94.768
0
LINE
8
BLACK
6
CONTINUOUS
10
102.154
20
-94.768
11
101.848
21
-94.768
0
LINE
8
BLACK
6
CONTINUOUS
10
101.848
20
-94.768
11
101.822
21
-94.7635
0
LINE
8
BLACK
6
CONTINUOUS
10
101.822
20
-94.7635
11
101.819
21
-94.7606
0
LINE
8
BLACK
6
CONTINUOUS
10
101.819
20
-94.7606
11
101.814
21
-94.7601
0
LINE
8
BLACK
6
CONTINUOUS
10
101.814
20
-94.7601
11
101.719
21
-94.7125
0
LINE
8
BLACK
6
CONTINUOUS
10
101.719
20
-94.7125
11
101.701
21
-94.6991
0
LINE
8
BLACK
6
CONTINUOUS
10
101.701
20
-94.6991
11
101.699
21
-94.6984
0
LINE
8
BLACK
6
CONTINUOUS
10
101.699
20
-94.6984
11
101.652
21
-94.6508
0
LINE
8
BLACK
6
CONTINUOUS
10
101.652
20
-94.6508
11
101.639
21
-94.6324
0
LINE
8
BLACK
6
CONTINUOUS
10
101.639
20
-94.6324
11
101.638
21
-94.6313
0
LINE
8
BLACK
6
CONTINUOUS
10
101.638
20
-94.6313
11
101.59
21
-94.5361
0
LINE
8
BLACK
6
CONTINUOUS
10
101.59
20
-94.5361
11
101.583
21
-94.5111
0
LINE
8
BLACK
6
CONTINUOUS
10
101.583
20
-94.5111
11
101.584
21
-94.5067
0
LINE
8
BLACK
6
CONTINUOUS
10
101.584
20
-94.5067
11
101.582
21
-94.5025
0
LINE
8
BLACK
6
CONTINUOUS
10
101.582
20
-94.5025
11
101.582
21
-94.3597
0
LINE
8
BLACK
6
CONTINUOUS
10
101.582
20
-94.3597
11
101.587
21
-94.334
0
LINE
8
BLACK
6
CONTINUOUS
10
101.587
20
-94.334
11
101.59
21
-94.3306
0
LINE
8
BLACK
6
CONTINUOUS
10
101.59
20
-94.3306
11
101.59
21
-94.3261
0
LINE
8
BLACK
6
CONTINUOUS
10
101.59
20
-94.3261
11
101.638
21
-94.2309
0
LINE
8
BLACK
6
CONTINUOUS
10
101.638
20
-94.2309
11
101.651
21
-94.2129
0
LINE
8
BLACK
6
CONTINUOUS
10
101.651
20
-94.2129
11
101.652
21
-94.2114
0
LINE
8
BLACK
6
CONTINUOUS
10
101.652
20
-94.2114
11
101.699
21
-94.1638
0
LINE
8
BLACK
6
CONTINUOUS
10
101.699
20
-94.1638
11
101.718
21
-94.1509
0
LINE
8
BLACK
6
CONTINUOUS
10
101.718
20
-94.1509
11
101.719
21
-94.1497
0
LINE
8
BLACK
6
CONTINUOUS
10
101.719
20
-94.1497
11
101.814
21
-94.1021
0
LINE
8
BLACK
6
CONTINUOUS
10
101.814
20
-94.1021
11
101.839
21
-94.0947
0
LINE
8
BLACK
6
CONTINUOUS
10
101.839
20
-94.0947
11
101.843
21
-94.0957
0
LINE
8
BLACK
6
CONTINUOUS
10
101.843
20
-94.0957
11
101.848
21
-94.0942
0
LINE
8
BLACK
6
CONTINUOUS
10
101.848
20
-94.0942
11
102.229
21
-94.0942
0
LINE
8
BLACK
6
CONTINUOUS
10
102.229
20
-94.0942
11
102.238
21
-94.0959
0
LINE
8
BLACK
6
CONTINUOUS
10
101.865
20
-94.2442
11
101.797
21
-94.2784
0
LINE
8
BLACK
6
CONTINUOUS
10
101.797
20
-94.2784
11
101.766
21
-94.3088
0
LINE
8
BLACK
6
CONTINUOUS
10
101.766
20
-94.3088
11
101.732
21
-94.3774
0
LINE
8
BLACK
6
CONTINUOUS
10
101.732
20
-94.3774
11
101.732
21
-94.4848
0
LINE
8
BLACK
6
CONTINUOUS
10
101.732
20
-94.4848
11
101.766
21
-94.5533
0
LINE
8
BLACK
6
CONTINUOUS
10
101.766
20
-94.5533
11
101.797
21
-94.5837
0
LINE
8
BLACK
6
CONTINUOUS
10
101.797
20
-94.5837
11
101.865
21
-94.618
0
LINE
8
BLACK
6
CONTINUOUS
10
101.865
20
-94.618
11
102.154
21
-94.618
0
LINE
8
BLACK
6
CONTINUOUS
10
102.154
20
-94.618
11
102.154
21
-94.2442
0
LINE
8
BLACK
6
CONTINUOUS
10
102.154
20
-94.2442
11
101.865
21
-94.2442
  0
ENDSEC
  0
EOF
